<?xml version="1.0" standalone="no"?><!DOCTYPE svg PUBLIC "-//W3C//DTD SVG 1.1//EN" "http://www.w3.org/Graphics/SVG/1.1/DTD/svg11.dtd"><svg t="1533201899548" class="icon" style="" viewBox="0 0 1024 1024" version="1.1" xmlns="http://www.w3.org/2000/svg" p-id="58316" xmlns:xlink="http://www.w3.org/1999/xlink" width="32" height="32"><defs><style type="text/css"></style></defs><path d="M499.783575 268.353887c7.778374 8.235925 18.187668 12.353887 28.482574 12.353888 10.294906 0 20.7042-4.117962 28.596961-12.353888 15.671135-16.700626 15.671135-43.581769-0.228775-60.282395-60.968722-63.828418-141.840929-99.059875-227.746202-99.059874-86.01966 0-166.891868 35.117069-227.746202 98.831099-15.785523 16.700626-15.899911 43.581769-0.114388 60.168007 15.671135 16.586238 41.294013 16.815013 57.079535 0.114388 45.640751-47.81412 106.266309-74.123324 170.895443-74.123325 64.514745 0.114388 125.140304 26.423592 170.781054 74.3521z" fill="#85F9E3" p-id="58317"></path><path d="M589.692422 195.603217c7.892761 7.892761 17.958892 11.896336 27.910635 11.896336 10.63807 0 21.276139-4.461126 29.168901-13.26899 15.442359-16.929401 14.87042-43.924933-1.143879-60.168007C559.951582 47.585344 447.508329 0 329.002521 0 210.267936 0 97.824683 47.585344 12.376962 133.948168c-16.014298 16.357462-16.586238 43.238606-1.143878 60.168007 15.442359 17.043789 41.065237 17.50134 57.079535 1.372654 70.234138-71.14924 162.888293-110.269884 260.689902-110.269884 97.687221-0.114388 190.226988 39.120643 260.689901 110.384272zM329.002521 217.22252c-53.075961 0-103.978552 23.678284-139.553173 65.086685-14.984808 17.386953-13.726542 44.268097 2.745308 60.168007 16.586238 15.785523 41.98034 14.412869 56.965148-2.974084 20.589812-24.021448 48.957998-37.290438 79.728329-37.290438 30.312779 0 59.367292 13.612154 79.842716 37.404826 8.007149 9.265416 18.873995 13.955317 29.855228 13.955317 9.722967 0 19.445934-3.546023 27.10992-11.095621 16.47185-15.785523 17.844504-42.666667 2.859696-60.05362-35.57462-41.4084-86.477212-65.201072-139.553172-65.201072z" fill="#85F9E3" p-id="58318"></path><path d="M1024.25185 365.583557H72.201806v2.745308h68.632707v66.116175h541.855228V637.140304H72.201806v68.861483H1024.25185V365.583557z m-68.060768 137.151027v66.688115h-68.861484V637.140304H821.327811v-67.717605h-68.975871v-66.688115H821.327811v-68.289544h66.001787v68.289544h68.861484z" fill="#3BE3C3" p-id="58319"></path><path d="M140.834513 434.44504V368.328865h-68.632707v268.811439h68.632707z" fill="#3BE1C3" p-id="58320"></path><path d="M821.213423 434.44504v68.289544h-68.861483v66.688115h68.861483V637.140304h66.001787v-67.717605h68.975872v-66.688115h-68.975872v-68.289544z" fill="#FFFFFF" p-id="58321"></path><path d="M172.977498 567.24933v-34.773906c8.007149 0 13.497766-0.457551 16.47185-1.258266 5.147453-1.487042 9.265416-4.117962 12.2395-7.892761 2.974084-3.774799 4.461126-8.579088 4.461126-14.298481 0-5.147453-1.143878-9.608579-3.431636-13.383378s-5.376229-6.405719-9.379803-8.007149-10.409294-2.516533-19.445934-2.516533h-16.586238V567.363718h15.671135z m0-67.031278h4.461126c4.80429 0 8.121537 0.571939 9.951743 1.60143 2.516533 1.487042 3.660411 3.774799 3.660411 6.977658 0 1.830206-0.457551 3.431635-1.258266 4.689902-0.915103 1.258266-2.058981 2.173369-3.660411 2.745308-1.487042 0.571939-4.23235 0.800715-8.121538 0.800715h-4.918677v-16.815013zM229.370706 542.770331c0-6.520107 0.228776-10.752458 0.686327-12.468276 0.800715-3.546023 2.402145-6.291332 4.575514-8.350312 2.173369-2.058981 4.918677-3.088472 8.00715-3.088472 2.402145 0 4.346738 0.571939 6.062555 1.830205 1.60143 1.258266 2.745308 3.088472 3.431636 5.605005 0.686327 2.516533 1.029491 7.320822 1.02949 14.298481v26.652368h14.984808v-40.150134c0-6.977659-1.715818-12.353887-5.261841-15.899911-4.117962-4.117962-9.265416-6.291332-15.213583-6.291331-3.088472 0-6.176944 0.686327-9.151028 1.944593-2.974084 1.258266-6.062556 3.20286-9.03664 5.83378v-29.626452h-15.099195V567.363718h15.099195v-24.593387zM303.379643 568.85076c3.546023 0 6.748883-0.571939 9.722967-1.830206 2.974084-1.258266 5.948168-3.317248 8.922252-6.176944v6.40572h15.213583v-60.854334h-15.213583v6.748882c-2.745308-2.745308-5.719392-4.80429-8.922252-6.176943-3.20286-1.372654-6.634495-2.058981-10.294906-2.058981-7.892761 0-14.641644 2.974084-20.246649 9.036639-5.490617 5.948168-8.350313 13.726542-8.350313 23.106345 0 9.03664 2.859696 16.586238 8.579089 22.763182 5.83378 5.948168 12.697051 9.03664 20.589812 9.03664z m-9.151028-44.954424c3.088472-3.317248 7.092046-5.033065 11.781948-5.033065 4.80429 0 8.807864 1.60143 12.010724 4.918677s4.689902 7.549598 4.689902 12.811439c0 5.376229-1.60143 9.722967-4.689902 13.154602-3.20286 3.317248-7.092046 5.033065-11.896336 5.033066-4.689902 0-8.579088-1.715818-11.781948-5.033066-3.20286-3.431635-4.80429-7.663986-4.804289-12.925826 0-5.261841 1.60143-9.494191 4.689901-12.925827zM358.628973 542.655943v-2.974084c0-8.464701 0.800715-14.184093 2.402145-17.158177 1.60143-2.859696 3.660411-4.346738 5.948168-4.346738 1.143878 0 2.63092 0.457551 4.461126 1.372654l4.804289-13.154602c-2.173369-1.029491-4.23235-1.60143-6.176944-1.60143-2.745308 0-5.376229 0.800715-7.663985 2.402144-2.402145 1.60143-4.23235 3.889187-5.605005 6.863271v-7.663985h-13.040214v60.854334h15.099195v-24.593387zM393.059714 540.13941c0-5.83378 0.457551-10.180518 1.487042-12.811439 1.029491-2.745308 2.63092-4.80429 4.689902-6.291331 2.058981-1.487042 4.346738-2.287757 6.977659-2.287757 2.287757 0 4.23235 0.571939 5.83378 1.830205 1.60143 1.143878 2.859696 2.974084 3.660411 5.490617 0.800715 2.402145 1.258266 6.405719 1.258266 11.781948V567.363718h15.327972v-27.453084c0-5.83378 0.457551-10.06613 1.487042-12.69705 1.029491-2.63092 2.516533-4.689902 4.575514-6.176944 2.058981-1.487042 4.461126-2.287757 6.977658-2.287757 3.431635 0 5.948168 1.258266 7.663986 3.660411s2.516533 7.092046 2.516533 13.955317v30.884719h15.327971v-35.689008c0-7.320822-0.686327-12.582663-2.173369-15.785523-1.487042-3.20286-3.774799-5.83378-7.092047-7.892761-3.317248-2.058981-7.092046-2.974084-11.438784-2.974084-4.23235 0-8.007149 0.915103-11.553173 2.745308-3.546023 1.830206-6.520107 4.575514-8.922252 8.121537-1.830206-3.546023-4.346738-6.291332-7.43521-8.121537-3.088472-1.830206-6.520107-2.745308-10.294906-2.745308s-7.206434 0.686327-10.409294 2.173369c-3.20286 1.372654-6.062556 3.546023-8.693476 6.405719v-6.977659h-15.213584V567.363718h15.213584v-27.224308zM505.960519 568.85076c3.546023 0 6.748883-0.571939 9.722967-1.830206 2.974084-1.258266 5.948168-3.317248 8.922252-6.176944v6.40572H539.933709v-60.854334h-15.213583v6.748882c-2.745308-2.745308-5.719392-4.80429-8.922252-6.176943-3.20286-1.372654-6.634495-2.058981-10.294907-2.058981-7.892761 0-14.641644 2.974084-20.246648 9.036639-5.490617 5.948168-8.350313 13.726542-8.350313 23.106345 0 9.03664 2.859696 16.586238 8.579088 22.763182 5.83378 5.948168 12.697051 9.03664 20.475425 9.03664z m-9.03664-44.954424c3.088472-3.317248 7.092046-5.033065 11.781948-5.033065 4.80429 0 8.807864 1.60143 12.010724 4.918677s4.689902 7.549598 4.689902 12.811439c0 5.376229-1.60143 9.722967-4.689902 13.154602s-7.092046 5.033065-11.896336 5.033066c-4.689902 0-8.579088-1.715818-11.781948-5.033066-3.20286-3.431635-4.80429-7.663986-4.80429-12.925826 0-5.261841 1.487042-9.494191 4.689902-12.925827zM580.884558 568.85076c11.896336 0 21.047364-4.23235 27.567471-12.697051l-12.010724-8.235925c-3.774799 4.689902-9.151028 6.977659-15.89991 6.977658-5.490617 0-9.951743-1.60143-13.383378-4.918677s-5.147453-7.549598-5.147454-12.697051c0-5.376229 1.715818-9.722967 5.261841-13.040214 3.546023-3.431635 8.121537-5.147453 13.84093-5.147454 3.088472 0 5.83378 0.457551 8.235925 1.487042 2.287757 0.915103 4.689902 2.745308 7.092046 5.147454l12.697051-6.977659c-3.088472-4.461126-6.977659-7.892761-11.781948-10.294906s-10.180518-3.660411-16.243074-3.660411c-6.520107 0-12.468275 1.372654-17.730116 4.23235s-9.379803 6.748883-12.353888 11.66756c-2.974084 4.918677-4.461126 10.409294-4.461126 16.243074 0 8.464701 2.974084 15.899911 9.03664 22.305631 6.176944 6.405719 14.641644 9.608579 25.279714 9.608579zM621.14908 589.440572h15.671135l38.091153-83.045576h-15.556747l-17.501341 38.20554-15.785523-38.20554h-15.556747l23.106345 56.27882z" fill="#3BE3C3" p-id="58322"></path><path d="M986.847025 951.478105h-878.49866c-19.903485 0-36.260947 16.357462-36.260947 36.260948s16.357462 36.260947 36.260947 36.260947h878.49866c19.903485 0 36.260947-16.357462 36.260947-36.260947 0-20.017873-16.357462-36.260947-36.260947-36.260948zM144.838088 706.001787h73.208222V950.563003h-73.208222zM438.014138 732.082216h73.208222v218.480787h-73.208222zM584.773745 732.082216h218.366398v72.979446H584.773745zM584.773745 878.155496h218.366398v72.979446H584.773745zM877.606631 706.001787h73.208222V950.563003h-73.208222zM380.820215 878.155496c8.693476 0 15.785523-7.092046 15.785523-15.785523v-41.637176c0-8.693476-7.092046-15.785523-15.785523-15.785523-8.693476 0-15.785523 7.092046-15.785523 15.785523v41.637176c0.114388 8.693476 7.206434 15.785523 15.785523 15.785523z" fill="#85F9E3" p-id="58323"></path></svg>