<?xml version="1.0" standalone="no"?><!DOCTYPE svg PUBLIC "-//W3C//DTD SVG 1.1//EN" "http://www.w3.org/Graphics/SVG/1.1/DTD/svg11.dtd"><svg t="1533196004774" class="icon" style="" viewBox="0 0 1024 1024" version="1.1" xmlns="http://www.w3.org/2000/svg" p-id="35883" xmlns:xlink="http://www.w3.org/1999/xlink" width="32" height="32"><defs><style type="text/css"></style></defs><path d="M130.996 217.343v529.895c0 96.639 47.813 125.397 47.813 125.397 26.406 26.276 69.217 26.276 95.623 0 26.406-26.274 69.219-26.274 95.625 0 26.406 26.276 69.219 26.276 95.625 0 26.406-26.274 69.222-26.274 95.629 0 26.403 26.276 69.219 26.276 95.625 0 26.406-26.274 69.219-26.274 95.623 0 26.406 26.276 69.219 26.276 95.625 0 0 0 47.813-32.676 47.813-125.397 0-92.72-0.196-529.942-0.196-529.942-0.024-49.393-40.274-89.418-89.912-89.418h-584.98c-49.658 0-89.913 40.053-89.913 89.465z" fill="#FFA820" p-id="35884"></path><path d="M895.833 293.009l-0.033-75.713c-0.024-49.393-40.274-89.418-89.912-89.418h-43.341c56.632 43.353 102.596 99.937 133.286 165.131zM219.147 127.9c-48.844 0.934-88.151 40.617-88.151 89.443v0.182a449.977 449.977 0 0 1 88.151-89.625zM895.981 673.307c-35.787 76.176-92.426 140.61-162.563 185.955a67.47 67.47 0 0 1 19.141 13.373c26.406 26.276 69.219 26.276 95.625 0 0 0 47.813-32.676 47.813-125.397-0.001-15.864-0.007-41.814-0.016-73.931zM131.011 749.123c0.62 95.118 47.798 123.512 47.798 123.512 25.908 25.78 67.594 26.248 94.098 1.443-55.738-31.156-104.118-73.896-141.896-124.955z" fill="#FEAC33" p-id="35885"></path><path d="M278.789 127.878h-57.881c-0.589 0-1.175 0.011-1.761 0.022a449.95 449.95 0 0 0-88.151 89.625v63.274c34.012-63.739 85.378-116.816 147.793-152.921zM895.981 673.307c-0.032-106.518-0.105-280.883-0.148-380.298-30.69-65.194-76.654-121.778-133.286-165.131H664.84c115.393 66.751 193.032 191.51 193.032 334.407 0 213.214-172.844 386.058-386.058 386.058-147.609 0-275.863-82.845-340.819-204.572v103.467c0 0.635 0.01 1.256 0.015 1.885 37.778 51.059 86.158 93.799 141.896 124.955 0.51-0.478 1.026-0.946 1.525-1.443 26.406-26.274 69.219-26.274 95.625 0 26.406 26.276 69.219 26.276 95.625 0 26.406-26.274 69.222-26.274 95.628 0 26.403 26.276 69.219 26.276 95.625 0 20.685-20.582 51.435-25.036 76.482-13.373 70.139-45.345 126.778-109.779 162.565-185.955z" fill="#FEB133" p-id="35886"></path><path d="M471.815 848.343c213.214 0 386.058-172.844 386.058-386.058 0-142.896-77.639-267.656-193.032-334.407H538.204c137.906 37.51 239.322 163.59 239.322 313.377 0 179.359-145.399 324.758-324.758 324.758-164.412 0-300.266-122.182-321.771-280.696V643.77c64.954 121.727 193.209 204.573 340.818 204.573zM367.331 127.878h-88.542c-62.415 36.105-113.781 89.182-147.793 152.921v116.394c17.637-130.003 112.191-235.548 236.335-269.315z" fill="#FEB633" p-id="35887"></path><path d="M452.767 766.014c179.359 0 324.758-145.399 324.758-324.758 0-149.787-101.416-275.867-239.322-313.377H367.331C243.187 161.645 148.633 267.19 130.996 397.193v88.125c21.505 158.514 157.36 280.696 321.771 280.696zM433.72 156.767c145.504 0 263.459 117.955 263.459 263.459S579.225 683.685 433.72 683.685 170.261 565.73 170.261 420.226 288.216 156.767 433.72 156.767z" fill="#FFBC34" p-id="35888"></path><path d="M433.72 683.685c145.504 0 263.459-117.955 263.459-263.459S579.225 156.767 433.72 156.767 170.261 274.722 170.261 420.226 288.216 683.685 433.72 683.685z m-19.047-486.647c111.65 0 202.159 90.51 202.159 202.159s-90.51 202.159-202.159 202.159-202.159-90.51-202.159-202.159 90.51-202.159 202.159-202.159z" fill="#FFC134" p-id="35889"></path><path d="M414.673 601.356c111.65 0 202.159-90.51 202.159-202.159s-90.51-202.159-202.159-202.159-202.159 90.51-202.159 202.159 90.51 202.159 202.159 202.159z m-19.047-364.048c77.795 0 140.86 63.065 140.86 140.86s-63.065 140.86-140.86 140.86-140.86-63.065-140.86-140.86 63.065-140.86 140.86-140.86z" fill="#FFC634" p-id="35890"></path><path d="M395.626 378.168m-140.86 0a140.86 140.86 0 1 0 281.72 0 140.86 140.86 0 1 0-281.72 0Z" fill="#FFCB34" p-id="35891"></path><path d="M805.888 145.878c39.633 0 71.892 32.042 71.912 71.426 0.002 4.372 0.196 438.278 0.196 529.933 0 42.494-10.973 70.356-20.179 86.246-9.36 16.157-18.849 23.571-19.875 24.345l-1.125 0.724-1.329 1.322c-9.375 9.329-21.847 14.467-35.116 14.467s-25.741-5.138-35.116-14.467c-16.167-16.087-37.655-24.946-60.507-24.946-22.852 0-44.341 8.859-60.509 24.946-9.375 9.329-21.847 14.467-35.117 14.467-13.27 0-25.741-5.137-35.115-14.467-16.167-16.087-37.657-24.946-60.51-24.946s-44.343 8.859-60.511 24.946c-9.375 9.329-21.846 14.467-35.116 14.467s-25.741-5.138-35.117-14.467c-16.167-16.087-37.656-24.946-60.508-24.946-22.852 0-44.341 8.859-60.509 24.946-9.375 9.329-21.846 14.467-35.115 14.467s-25.74-5.138-35.115-14.467l-1.257-1.458-2.039-1.139c-1.143-0.786-10.28-7.37-19.32-22.761-9.075-15.45-19.893-43.134-19.893-87.28V217.343c0-39.406 32.26-71.465 71.912-71.465h584.978m0-18h-584.98c-49.657 0-89.912 40.053-89.912 89.465v529.895c0 96.639 47.813 125.397 47.813 125.397 13.203 13.138 30.507 19.707 47.812 19.707s34.608-6.569 47.812-19.707c13.203-13.137 30.508-19.706 47.813-19.706s34.609 6.568 47.812 19.706c13.203 13.138 30.508 19.707 47.813 19.707s34.609-6.569 47.812-19.707c13.203-13.137 30.509-19.706 47.814-19.706s34.611 6.568 47.814 19.706c13.201 13.138 30.506 19.707 47.811 19.707s34.611-6.569 47.814-19.707c13.203-13.137 30.508-19.706 47.812-19.706s34.609 6.568 47.811 19.706c13.203 13.138 30.508 19.707 47.812 19.707s34.609-6.569 47.813-19.707c0 0 47.812-32.676 47.812-125.397 0-92.72-0.196-529.942-0.196-529.942-0.025-49.393-40.274-89.418-89.912-89.418z" fill="#FFA820" p-id="35892"></path><path d="M756.904 244.939H270.087c-19.205 0-34.771 15.568-34.771 34.773v69.545c0 19.203 15.566 34.774 34.771 34.774h486.816c19.207 0 34.773-15.571 34.773-34.774v-69.545c0-19.206-15.566-34.773-34.772-34.773z m-278.181 191.25H270.087c-19.205 0-34.771 15.568-34.771 34.774 0 19.203 15.566 34.771 34.771 34.771h208.636c19.201 0 34.773-15.568 34.773-34.771 0-19.207-15.571-34.774-34.773-34.774z m0 121.706H270.087c-19.205 0-34.771 15.568-34.771 34.771 0 19.203 15.566 34.773 34.771 34.773h208.636c19.201 0 34.773-15.57 34.773-34.773 0-19.203-15.571-34.771-34.773-34.771z" fill="#FFE3B4" p-id="35893"></path><path d="M193.569 279.655c-9.941 0-18-8.059-18-18v-9.908c0-45.915 37.354-83.27 83.269-83.27h16.196c9.941 0 18 8.059 18 18s-8.059 18-18 18h-16.196c-26.064 0-47.269 21.205-47.269 47.27v9.908c0 9.941-8.06 18-18 18zM193.569 349.261c-9.941 0-18-8.059-18-18v-10.546c0-9.941 8.059-18 18-18s18 8.059 18 18v10.546c0 9.941-8.06 18-18 18z" fill="#FFFFFF" p-id="35894"></path></svg>