<?xml version="1.0" standalone="no"?><!DOCTYPE svg PUBLIC "-//W3C//DTD SVG 1.1//EN" "http://www.w3.org/Graphics/SVG/1.1/DTD/svg11.dtd"><svg t="1533291708160" class="icon" style="" viewBox="0 0 1024 1024" version="1.1" xmlns="http://www.w3.org/2000/svg" p-id="8635" xmlns:xlink="http://www.w3.org/1999/xlink" width="48" height="48"><defs><style type="text/css"></style></defs><path d="M32.365 512c0 264.567 214.474 479.041 479.041 479.041s479.041-214.474 479.041-479.041c0-264.567-214.474-479.041-479.041-479.041-264.567 0-479.041 214.474-479.041 479.041z" fill="#5C958D" p-id="8636"></path><path d="M820.829 508.96c0.047-2.344 0.086-4.688 0.086-7.040 0-45.348-8.887-89.355-26.416-130.796-16.925-40.013-41.148-75.946-71.998-106.794-30.85-30.85-66.779-55.073-106.794-71.997-41.441-17.528-85.448-26.417-130.796-26.417-45.35 0-89.355 8.887-130.796 26.417-40.015 16.925-75.946 41.148-106.795 71.997s-55.073 66.781-71.997 106.794c-17.528 41.441-26.417 85.448-26.417 130.796 0 45.349 8.887 89.355 26.417 130.797 16.925 40.014 41.148 75.946 71.997 106.794s66.78 55.073 106.795 71.997c41.44 17.528 85.447 26.417 130.796 26.417 45.349 0 89.355-8.887 130.796-26.417 46.164-19.839 85.285-47.968 117.154-82.838-63.651 54.249-63 53.824-62.352 53.394 32.756-21.878 60.274-48.719 82.223-79.777-77.936 76.891-77.182 76.361-76.425 75.836 34.933-24.447 64.133-54.409 87.002-88.93l-81.025 84.686c26.026 20.774 59.006 33.198 94.895 33.198 84.082 0 152.243-68.162 152.243-152.243-0.001-68.907-45.786-127.112-108.591-145.878z" fill="" p-id="8637"></path><path d="M330.618 168.835c-40.015 16.925-75.946 41.148-106.795 71.997s-55.073 66.78-71.998 106.794c-17.528 41.441-26.416 85.448-26.416 130.796 0 45.349 8.888 89.355 26.416 130.797 16.925 40.013 41.149 75.946 71.998 106.794s66.78 55.073 106.795 71.997c41.44 17.528 85.447 26.417 130.796 26.417v-672.011c-45.35 0-89.356 8.888-130.796 26.417z" fill="#EBEBED" p-id="8638"></path><path d="M771.004 347.627c-16.925-40.014-41.149-75.946-71.998-106.794s-66.78-55.073-106.794-71.997c-41.441-17.528-85.448-26.417-130.796-26.417v672.011c45.349 0 89.355-8.888 130.796-26.417 40.014-16.925 75.946-41.148 106.794-71.997s55.073-66.781 71.998-106.794c17.528-41.442 26.416-85.448 26.416-130.797-0.001-45.348-8.887-89.354-26.416-130.796z" fill="#D5D6DA" p-id="8639"></path><path d="M242.456 656.098c-35.148-43.152-56.479-95.194-61.719-150.65h92.1c1.773 40.85 7.551 80.249 16.976 116.571-45.41 27.303-82.733 63.582-110.432 106.64zM242.449 300.759c38.098 32.977 84.329 57.635 135.236 70.583-97.298-0.189-103.076 39.209-104.849 80.058h-92.1c5.242-55.455 26.569-107.491 61.713-150.641z" fill="#75A7D8" p-id="8640"></path><path d="M488.439 202.692c6.438 2.972 12.826 6.991 19.132 12.074 16.18 13.042 31.593 33.006 44.57 57.734 5.69 10.841 10.862 22.428 15.513 34.632-25.391 10.351-51.914 16.848-79.214 19.424v-123.863z" fill="#4A72AD" p-id="8641"></path><path d="M434.39 326.556c-27.297-2.576-53.824-9.069-79.217-19.419 4.652-12.205 9.825-23.794 15.516-34.638 12.977-24.728 28.389-44.692 44.569-57.734 6.307-5.083 12.695-9.101 19.133-12.074v123.864zM434.39 380.827v70.572h-107.456c1.521-32.29 5.763-63.401 12.514-92.339 30.475 11.896 62.268 19.184 94.942 21.767zM434.39 505.449v70.576c-32.657 2.584-64.458 9.871-94.942 21.764-6.751-28.938-10.992-60.050-12.514-92.34h107.455zM434.39 630.289v123.866c-6.438-2.972-12.826-6.991-19.133-12.073-16.18-13.042-31.592-33.006-44.569-57.735-5.691-10.841-10.863-22.428-15.513-34.632 29.178-12.242 63.036-19.723 98.537-20.57z" fill="#75A7D8" p-id="8642"></path><path d="M488.439 630.293c27.3 2.575 53.824 9.074 79.214 19.424-4.651 12.203-9.823 23.789-15.513 34.632-12.977 24.729-28.389 44.692-44.57 57.735-6.306 5.082-12.694 9.101-19.132 12.073v-123.863zM488.439 576.019v-70.57h107.456c-1.522 32.289-5.763 63.4-12.514 92.336-30.473-11.896-62.262-19.184-94.942-21.766zM488.439 451.4v-70.571c32.68-2.581 64.47-9.87 94.942-21.767 6.751 28.937 10.991 60.048 12.514 92.337h-107.456zM649.991 451.4c-1.773-40.852-7.551-80.251-16.978-116.572 45.348-27.244 82.621-63.456 110.285-106.437-27.774 115.518-6.447 167.556-1.207 223.011h-92.1zM642.346 262.172c-30.327 25.557-66.73 44.964-106.672 55.758 75.314-48.1 70.051-59.635 64.325-70.545-19.289-36.342-44.233-67.064-74.032-92.215 81.217 80.794 99.498 92.83 116.378 107.002z" fill="#4A72AD" p-id="8643"></path><path d="M335.008 226.235c-20.27 31.683-35.156 68.884-42.322 108.765 24.417-76.707 19.154-65.173 14.35-53.122-34.621-22.882-63.122-52.174-84.429-86.409 74.76 52.526 93.039 40.493 112.401 30.765zM280.488 694.681c30.377-25.611 66.84-45.062 106.849-55.885-75.498 48.222-70.234 59.757-64.508 70.669 19.274 36.316 44.2 67.015 73.978 92.149-81.161-80.728-99.441-92.762-116.318-106.932z" fill="#75A7D8" p-id="8644"></path><path d="M592.927 674.963c0 36.363 12.756 69.743 34.028 95.926 26.284-14.883 50.422-33.243 72.052-54.872 17.585-17.585 33.008-36.828 46.163-57.53v-135.768c-84.082 0-152.243 68.162-152.243 152.243z" fill="#ABAAB0" p-id="8645"></path><path d="M601.438 631.344c0 84.082 68.162 152.243 152.243 152.243v-304.485c-84.082 0-152.243 68.162-152.243 152.243z" fill="#95C426" p-id="8646"></path><path d="M753.681 479.1v304.485c84.082 0 152.242-68.162 152.242-152.243s-68.161-152.243-152.242-152.243z" fill="#7DB523" p-id="8647"></path><path d="M783.871 597.789c-8.782-7.805-16.343-11.707-25.367-11.707-10.488 0-15.61 2.927-15.61 12.683 0 18.537 62.929 19.514 62.929 63.905 0 23.66-12.439 42.197-38.050 48.294v25.855h-27.317v-24.391c-13.904-1.707-31.221-7.562-43.417-18.537l18.049-28.294c13.172 9.756 23.416 13.658 33.661 13.658 12.196 0 17.074-4.146 17.074-13.658 0-19.514-62.929-22.197-62.929-64.881 0-24.636 13.903-41.708 37.563-46.831v-25.367h27.317v24.879c15.367 2.439 27.075 10.245 36.831 20.488l-20.732 23.904z" fill="#FFFFFF" p-id="8648"></path></svg>