<?xml version="1.0" standalone="no"?><!DOCTYPE svg PUBLIC "-//W3C//DTD SVG 1.1//EN" "http://www.w3.org/Graphics/SVG/1.1/DTD/svg11.dtd"><svg t="1533258993455" class="icon" style="" viewBox="0 0 1024 1024" version="1.1" xmlns="http://www.w3.org/2000/svg" p-id="17822" xmlns:xlink="http://www.w3.org/1999/xlink" width="48" height="48"><defs><style type="text/css"></style></defs><path d="M812.4 266.1H211.6c-22.2 0-40.9 16.4-43.9 38.3l-62.6 461.1h813.8l-62.6-461.1c-3-21.9-21.8-38.3-43.9-38.3z" fill="#F65064" p-id="17823"></path><path d="M951.9 1008.4l-33-242.9H105.1l-33 242.9z" fill="#62B5F9" p-id="17824"></path><path d="M871.7 302.3c-4-29.6-29.5-51.8-59.4-51.8H665.1V143.9C665.1 64.6 600.5 0 521.2 0s-144 64.6-144 143.9v106.6H211.6c-29.8 0-55.3 22.3-59.4 51.8l-95.6 703.9c-0.6 4.5 0.7 9 3.7 12.4 3 3.4 7.3 5.3 11.8 5.3h879.7c4.5 0 8.8-1.9 11.8-5.3s4.3-7.9 3.7-12.4l-95.6-703.9zM408.5 143.9c0-62.1 50.5-112.7 112.7-112.7s112.7 50.5 112.7 112.7v106.6H408.5V143.9zM183.2 306.5c1.9-14.1 14.1-24.8 28.4-24.8h600.8c14.3 0 26.5 10.7 28.4 24.8L901 749.9H123l60.2-443.4zM90 992.8l28.7-211.6h786.5L934 992.8H90z" fill="#272A3B" p-id="17825"></path><path d="M392.9 379.1m-35.7 0a35.7 35.7 0 1 0 71.4 0 35.7 35.7 0 1 0-71.4 0Z" fill="#62B5F9" p-id="17826"></path><path d="M392.9 430.5c-28.3 0-51.4-23-51.4-51.4 0-28.3 23-51.4 51.4-51.4 28.3 0 51.4 23 51.4 51.4-0.1 28.3-23.1 51.4-51.4 51.4z m0-71.5c-11.1 0-20.1 9-20.1 20.1 0 11.1 9 20.1 20.1 20.1 11.1 0 20.1-9 20.1-20.1 0-11.1-9-20.1-20.1-20.1z" fill="#272A3B" p-id="17827"></path><path d="M649.5 379.1m-35.7 0a35.7 35.7 0 1 0 71.4 0 35.7 35.7 0 1 0-71.4 0Z" fill="#62B5F9" p-id="17828"></path><path d="M649.5 430.5c-28.3 0-51.4-23-51.4-51.4 0-28.3 23-51.4 51.4-51.4 28.3 0 51.4 23 51.4 51.4-0.1 28.3-23.1 51.4-51.4 51.4z m0-71.5c-11.1 0-20.1 9-20.1 20.1 0 11.1 9 20.1 20.1 20.1 11.1 0 20.1-9 20.1-20.1 0-11.1-9.1-20.1-20.1-20.1zM552 637.2h-80c-8.6 0-15.6-7-15.6-15.6s7-15.6 15.6-15.6h80c8.6 0 15.6 7 15.6 15.6 0.1 8.6-6.9 15.6-15.6 15.6z" fill="#272A3B" p-id="17829"></path></svg>