<?xml version="1.0" standalone="no"?><!DOCTYPE svg PUBLIC "-//W3C//DTD SVG 1.1//EN" "http://www.w3.org/Graphics/SVG/1.1/DTD/svg11.dtd"><svg t="1533201688766" class="icon" style="" viewBox="0 0 1024 1024" version="1.1" xmlns="http://www.w3.org/2000/svg" p-id="55350" xmlns:xlink="http://www.w3.org/1999/xlink" width="32" height="32"><defs><style type="text/css"></style></defs><path d="M273.408 804.864c-15.872 0-29.184 12.8-29.184 29.184l0 70.656c0 15.872 12.8 29.184 29.184 29.184 15.872 0 29.184-13.312 29.184-29.184l0-70.656C302.592 818.176 289.28 804.864 273.408 804.864z" p-id="55351" fill="#e6e6e6"></path><path d="M750.592 804.864c-15.872 0-29.184 12.8-29.184 29.184l0 70.656c0 15.872 12.8 29.184 29.184 29.184 16.384 0 29.696-13.312 29.184-29.184l0-70.656C779.776 818.176 766.464 804.864 750.592 804.864z" p-id="55352" fill="#e6e6e6"></path><path d="M475.136 875.52c-15.872 0-29.184 12.8-29.184 29.184l0 40.96c0 15.872 12.8 29.184 29.184 29.184 16.384 0 29.696-13.312 29.184-29.184l0-40.96C504.32 888.832 491.52 875.52 475.136 875.52z" p-id="55353" fill="#e6e6e6"></path><path d="M548.864 875.52c-15.872 0-29.184 12.8-29.184 29.184l0 40.96c0 15.872 12.8 29.184 29.184 29.184 15.872 0 29.184-13.312 29.184-29.184l0-40.96C578.048 888.832 564.736 875.52 548.864 875.52z" p-id="55354" fill="#e6e6e6"></path><path d="M322.048 579.584c0.512-16.384-12.288-29.696-28.672-29.696l-33.28-0.512c-15.872-0.512-29.184 12.288-29.696 28.672-0.512 16.384 12.288 29.696 28.672 29.696l33.792 0.512C308.736 608.256 322.048 595.456 322.048 579.584z" p-id="55355" fill="#e6e6e6"></path><path d="M381.44 696.32l-33.28-0.512-0.512 0c-15.872 0-29.184 12.8-29.184 28.672-0.512 16.384 12.288 29.696 28.672 29.696l33.792 0.512c15.872 0 29.184-12.8 29.184-28.672C410.624 709.632 397.824 696.32 381.44 696.32z" p-id="55356" fill="#e6e6e6"></path><path d="M351.232 652.8c0.512-16.384-12.288-29.696-28.672-29.696l-33.28-0.512-0.512 0c-15.872 0-29.184 12.8-29.184 28.672-0.512 16.384 12.288 29.696 28.672 29.696l33.792 0.512C338.432 681.472 351.232 668.672 351.232 652.8z" p-id="55357" fill="#e6e6e6"></path><path d="M761.856 549.376l-0.512 0-33.28 0.512c-15.872 0-28.672 13.312-28.672 29.696 0 15.872 13.312 28.672 29.184 28.672l33.792-0.512c15.872 0 28.672-13.312 28.672-29.696C791.04 562.176 777.728 549.376 761.856 549.376z" p-id="55358" fill="#e6e6e6"></path><path d="M673.792 695.808l-0.512 0L640 696.32c-15.872 0-28.672 13.312-28.672 29.696 0 15.872 13.312 28.672 29.184 28.672l33.792-0.512c15.872 0 28.672-13.312 28.672-29.696C702.976 708.608 689.664 695.808 673.792 695.808z" p-id="55359" fill="#e6e6e6"></path><path d="M732.16 622.592 732.16 622.592l-33.792 0.512c-15.872 0-28.672 13.312-28.672 29.696 0 15.872 13.312 28.672 29.184 28.672l33.792-0.512c15.872 0 28.672-13.312 28.672-29.696C761.344 635.392 748.032 622.592 732.16 622.592z" p-id="55360" fill="#e6e6e6"></path><path d="M512 72.704c-221.184 0-401.408 179.712-401.408 401.408 0 163.84 98.816 305.152 240.128 367.616-1.024 0-2.56-0.512-4.096-0.512-15.872 0-29.184 12.8-29.184 29.184l0 66.56c0 15.872 12.8 29.184 29.184 29.184 15.872 0 29.184-13.312 29.184-29.696L375.808 870.4c0-9.216-4.608-17.92-11.776-23.04C409.6 865.28 459.776 875.52 512 875.52c52.224 0 101.888-10.24 147.968-28.16-7.168 5.12-11.776 13.824-11.776 23.04l0 66.56c0 15.872 12.8 29.184 29.184 29.184 16.384 0 29.184-13.312 29.184-29.696L706.56 870.4c0-15.872-13.312-29.184-29.184-29.184-1.536 0-2.56 0-4.096 0.512 141.312-62.464 240.128-203.776 240.128-367.616C913.408 252.928 733.184 72.704 512 72.704zM512 817.152c-188.928 0-343.04-154.112-343.04-343.04 0-188.928 154.112-343.04 343.04-343.04s343.04 154.112 343.04 343.04C855.04 663.04 700.928 817.152 512 817.152z" p-id="55361" fill="#e6e6e6"></path><path d="M541.184 561.664l0-209.92 76.288 0-45.568 136.704c-3.072 9.216-1.536 18.944 4.096 26.624 5.12 7.68 14.336 12.288 23.552 12.288L716.8 527.36c9.728 0 18.432-4.608 23.04-12.288 5.632-7.68 7.168-17.92 4.096-26.624L687.104 317.44c-1.536-8.704-7.168-16.384-14.848-20.992-4.096-2.56-9.216-4.096-14.336-4.096-1.536 0-3.584 0-5.12 0.512l-111.616 0L541.184 232.96l69.632 0c16.384 0 29.696-13.312 29.184-29.184 0-15.872-12.8-29.184-29.184-29.184l-91.648 0c-2.56-0.512-4.608-1.024-7.168-1.024-2.56 0-5.12 0.512-7.68 1.024L412.672 174.592c-15.872 0-29.184 12.8-29.184 29.184 0 15.872 12.8 29.184 29.184 29.184l70.144 0 0 59.904-117.248 0c0 0 0 0-0.512 0 0 0 0 0 0 0-0.512 0-0.512 0-1.024 0-1.024 0-1.536 0-2.56 0-10.752 1.536-20.48 9.216-24.576 19.456L279.04 488.448c-3.072 9.216-1.536 18.944 4.096 26.624 5.12 7.68 14.336 12.288 23.552 12.288l117.248 0c9.728 0 18.432-4.608 23.04-12.288 5.632-7.68 7.168-17.92 4.096-26.624l-45.568-137.216 77.312 0 0 210.944c-41.472 13.312-71.68 52.224-71.68 97.792 0 56.32 46.08 102.4 102.4 102.4 56.832 0 102.4-46.08 102.4-102.4C615.936 613.376 584.192 573.44 541.184 561.664zM640.512 468.48l17.92-53.76 17.92 53.76L640.512 468.48zM347.648 468.48 365.568 414.72l17.92 53.76L347.648 468.48zM513.536 704c-24.064 0-44.032-19.968-44.032-44.032s19.456-44.032 44.032-44.032c24.064 0 44.032 19.968 44.032 44.032C557.568 684.032 537.6 704 513.536 704z" p-id="55362" fill="#e6e6e6"></path></svg>