<?xml version="1.0" standalone="no"?><!DOCTYPE svg PUBLIC "-//W3C//DTD SVG 1.1//EN" "http://www.w3.org/Graphics/SVG/1.1/DTD/svg11.dtd"><svg t="1533368373567" class="icon" style="" viewBox="0 0 1024 1024" version="1.1" xmlns="http://www.w3.org/2000/svg" p-id="19049" xmlns:xlink="http://www.w3.org/1999/xlink" width="48" height="48"><defs><style type="text/css"></style></defs><path d="M737.47 801.026v120.833H287.882V802.475l-0.004 0.006-127.151-120.995-56.604-57.944V262.146h0.648l174.154-159.953 0.055 0.054v-0.51h49.984v199.766l185.493 115.235 182.612-116.311V101.738h51.904v1.6l173.032 158.808h0.648v360.436L737.47 801.026zM881.393 286.8L738.102 144.702v173.104l0.304 0.535-0.304 0.183v1.016h-1.709l-162.12 104.026-58.31 35.03-228.081-137.44 0.169-0.305h-0.122V144.806L144.742 286.8v312.759l134.189 135.395 50.214 59.863v84.953h368.341V778.504l50.851-49.591L881.393 608.41V286.8zM390.078 565.549h245.448v41.435H390.078v-41.435z" fill="#515151" p-id="19050" data-spm-anchor-id="a313x.7781069.0.i99" class="selected"></path></svg>