<?xml version="1.0" standalone="no"?><!DOCTYPE svg PUBLIC "-//W3C//DTD SVG 1.1//EN" "http://www.w3.org/Graphics/SVG/1.1/DTD/svg11.dtd"><svg t="1533296220255" class="icon" style="" viewBox="0 0 1024 1024" version="1.1" xmlns="http://www.w3.org/2000/svg" p-id="18740" xmlns:xlink="http://www.w3.org/1999/xlink" width="48" height="48"><defs><style type="text/css"></style></defs><path d="M943.216 878.04h-861.1v-449.7h861.1z" fill="#F5CC49" p-id="18741"></path><path d="M943.3 896H82.1c-9.9 0-17.9-8-17.9-17.9V428.4c0-9.9 8-17.9 17.9-17.9h861.1c9.9 0 17.9 8 17.9 17.9v449.7c0.1 9.9-7.9 17.9-17.8 17.9z m-843.2-35.9h825.2V446.3H100.1v413.8z" fill="#3D2C1F" p-id="18742"></path><path d="M943.216 878.095h-861.1v-93h861.1z" fill="#8B3F37" p-id="18743"></path><path d="M943.3 896H82.1c-9.9 0-17.9-8-17.9-17.9v-93c0-9.9 8-17.9 17.9-17.9h861.1c9.9 0 17.9 8 17.9 17.9v93c0.1 9.9-7.9 17.9-17.8 17.9z m-843.2-35.9h825.2V803H100.1v57.1z" fill="#3D2C1F" p-id="18744"></path><path d="M943.216 519.608h-861.1v-91.3h861.1z" fill="#F08938" p-id="18745"></path><path d="M943.3 537.6H82.1c-9.9 0-17.9-8-17.9-17.9v-91.3c0-9.9 8-17.9 17.9-17.9h861.1c9.9 0 17.9 8 17.9 17.9v91.3c0.1 9.8-7.9 17.9-17.8 17.9z m-843.2-35.9h825.2v-55.4H100.1v55.4z" fill="#3D2C1F" p-id="18746"></path><path d="M943.3 428.4L392.8 157.9 82.2 428.4z" fill="#F08938" p-id="18747"></path><path d="M943.3 446.3H82.1c-7.5 0-14.2-4.6-16.8-11.6-2.6-7-0.6-14.9 5-19.8L381 144.4c5.4-4.7 13.2-5.8 19.7-2.6l550.5 270.5c7.5 3.7 11.4 12 9.6 20.2-2 8.1-9.2 13.8-17.5 13.8z m-813.2-35.9h736L395.5 179.3 130.1 410.4z" fill="#3D2C1F" p-id="18748"></path><path d="M116 711.7l257.7 8.6S173 429.9 116 711.7zM350.6 604.1c198.4 244 280.5-8.3 280.5-8.3s-287.6-0.4-280.5 8.3zM618.3 713.2c-4.2 9.3 291.1-0.2 291.1-0.2s-179.5-247.1-291.1 0.2z" fill="#8B3F37" p-id="18749"></path></svg>