<?xml version="1.0" standalone="no"?><!DOCTYPE svg PUBLIC "-//W3C//DTD SVG 1.1//EN" "http://www.w3.org/Graphics/SVG/1.1/DTD/svg11.dtd"><svg t="1533296162161" class="icon" style="" viewBox="0 0 1024 1024" version="1.1" xmlns="http://www.w3.org/2000/svg" p-id="18539" xmlns:xlink="http://www.w3.org/1999/xlink" width="48" height="48"><defs><style type="text/css"></style></defs><path d="M707.1 439.9c0 201-25.3 363.9-207.1 363.9-179.4 0-207.1-162.9-207.1-363.9S426.6 76 500 76c72.7 0 207.1 162.9 207.1 363.9z" fill="#B8E1D7" p-id="18540"></path><path d="M500 815.8c-45.4 0-84-10.3-114.6-30.6-28.7-19-50.7-46.2-67.1-83.1C285.2 627.9 281 523 281 439.9c0-124.7 48.8-218.8 77.9-263.8 21.4-33 45.7-61 70.3-80.8C454.5 74.8 479 64 500 64c20.8 0 45.2 10.8 70.5 31.3 24.6 19.9 48.9 47.8 70.3 80.8C670 221.2 719 315.4 719 439.9c0 88.8-4.3 189.4-36.4 262.2-16.3 37-38.2 64.2-67 83.2-30.7 20.2-69.6 30.5-115.6 30.5zM500 88c-27.7 0-75.8 31.3-121 101.1-27.7 42.8-74.1 132.2-74.1 250.8 0 80.7 4 182.3 35.3 252.4 30.3 67.9 81 99.5 159.8 99.5 162.5 0 195.1-134.6 195.1-351.9 0-118.4-46.6-207.9-74.4-250.8-20-30.9-42.6-56.9-65.3-75.2C534.8 97.2 515.1 88 500 88z" fill="#3F3949" p-id="18541"></path><path d="M389.3 692.3C358 622.2 354 520.6 354 439.9c0-118.6 46.4-208 74.1-250.8 33.7-52.1 69.1-82.7 96.3-94.9-8.9-4-17.2-6.2-24.4-6.2-27.7 0-75.8 31.3-121 101.1-27.7 42.8-74.1 132.2-74.1 250.8 0 80.7 4 182.3 35.3 252.4 30.3 67.9 81 99.5 159.8 99.5 8.5 0 16.7-0.4 24.6-1.1-65-6.2-108.4-37.8-135.3-98.4z" fill="#FFFFFF" p-id="18542"></path><path d="M342.5 386.6s314.9 187.5 292.1 340.7-130 111.5-130 111.5L342.5 386.6z" fill="#A3887F" p-id="18543"></path><path d="M536.1 855.9c-20.1 0-34.8-5.6-35.8-6-3.2-1.3-5.8-3.9-7-7.1l-162-452.2a12 12 0 0 1 3.7-13.3c3.9-3.2 9.4-3.6 13.8-1 0.8 0.5 80.5 48.2 156.3 114.2 44.8 39 79.7 76.8 103.6 112.3 30.8 45.8 43.6 88.3 37.9 126.3-8.5 56.9-29.3 95.3-61.9 114.3-16.9 9.7-34.2 12.5-48.6 12.5z m-22.3-26.8c10.4 2.7 35.7 6.9 59-6.7 25.8-15.2 42.7-47.8 50-96.9 11-73.7-66.5-158.7-133.5-216.9-46.3-40.3-94.1-73.6-123.6-93.1l148.1 413.6z" fill="#3F3949" p-id="18544"></path><path d="M673 167.4c9.2 48.3 14.1 98.8 14.1 150.8 0 293.8-75.7 458.5-164.3 504.1-29.1 15-8 125.7-3.5 125.7C741.8 948 872 760.3 872 528.9c0-154-79.9-288.7-199-361.5z" fill="#FFF4E6" p-id="18545"></path><path d="M519.4 960c-10.8 0-13.5-11.1-15.7-20-3.8-15.8-7.8-42.4-8-66.2-0.3-34.2 6.8-54.5 21.6-62.1 44-22.6 81.9-75.3 109.6-152.3 31.5-87.9 48.2-205.8 48.2-341.1 0-50.3-4.7-100.2-13.9-148.5-0.9-4.7 1.1-9.4 5-12.1 3.9-2.7 9-2.8 13.1-0.4 61.2 37.4 112.5 90.9 148.3 154.6C864.5 377.5 884 452.6 884 529c0 118.5-33.9 226.4-95.5 303.8-32 40.2-70.7 71.6-114.9 93.1-46.5 22.6-98.4 34.1-154.2 34.1z m170.2-767.2c6.4 41.1 9.6 83.2 9.6 125.5 0 139.9-16.7 257.4-49.6 349.2-29.7 82.8-71.6 140.1-121.2 165.6-3.7 1.9-10.2 15-8.3 51.1 1.2 21.8 4.9 42 7.3 51.8C723.7 931.6 860 765.5 860 529c0-134.4-64.7-260.8-170.4-336.2z" fill="#3F3949" p-id="18546"></path><path d="M556.1 884.1c-1.9-36.1 4.6-49.2 8.3-51.1 49.6-25.5 91.5-82.7 121.2-165.6 32.9-91.8 49.6-209.3 49.6-349.2 0-31-1.7-61.8-5.2-92.3-12.7-11.9-26.2-23-40.4-33.1 6.4 41.1 9.6 83.2 9.6 125.5 0 139.9-16.7 257.4-49.6 349.2-29.7 82.8-71.6 140.1-121.2 165.6-3.7 1.9-10.2 15-8.3 51.1 1.2 21.8 4.9 42 7.3 51.8 12-0.3 8-4.4 19.6-5.9-2.4-10.6 10.1-26 9.1-46z" fill="#FFFFFF" p-id="18547"></path><path d="M286.9 213.2C204.1 290.5 152 402.8 152 527.6c0 221.5 163.5 402.5 372 420.4 20.5 0 26.3-95.6 26.3-147.9 0-88.4-26.1-170.4-70.7-238.3-13.2-20.1-28.7-38.3-44.3-56.3C382.2 444 296.2 331 286.9 213.2z" fill="#FFF4E6" p-id="18548"></path><path d="M524 960h-1c-104.3-9-201-57.9-272.1-137.8C179.4 741.9 140 637.3 140 527.6c0-62.7 12.6-123.2 37.4-179.9 24-54.7 58.1-103 101.3-143.4 3.4-3.1 8.2-4.1 12.5-2.4 4.3 1.7 7.3 5.6 7.6 10.2 6.7 85.4 55.7 181.4 145.5 285.4 17 19.6 32.1 37.5 45.2 57.6 47.5 72.3 72.7 157 72.7 244.9 0 12.4-0.4 55.9-5.6 95.2-2.3 17.3-5.2 31.1-8.6 41-5.5 15.8-13.6 23.8-24 23.8zM278 238.9c-72.7 76.6-114 180.5-114 288.7 0 210.6 157 389.2 358 408.1 2.1-3.2 7.7-14.7 11.9-51.7 2.7-24.2 4.4-55.6 4.4-84 0-83.2-23.8-163.3-68.7-231.7-12.4-18.8-27-36.1-43.4-55.1-37.3-43.2-68.2-85.8-91.9-126.9-29.8-51.4-48.7-100.9-56.3-147.4z" fill="#3F3949" p-id="18549"></path><path d="M213.8 527.6c0-87.4 26.9-171.9 75.5-241.5-5-16-8.8-31.8-11.3-47.2-72.7 76.6-114 180.5-114 288.7 0 210.6 157 389.2 358 408.1 0.8-1.1 1.9-3.3 3.4-7.3-178.3-39.8-311.6-206.7-311.6-400.8z" fill="#FFFFFF" p-id="18550"></path><path d="M654.4 834.7c-4 0-7.9-2-10.2-5.6-3.5-5.6-1.9-13 3.8-16.5 63.4-39.9 72-104.1 72.1-104.8 0.8-6.6 6.8-11.3 13.4-10.4 6.6 0.8 11.2 6.8 10.4 13.4-0.4 3.1-10.2 76.2-83.1 122.1-2 1.2-4.2 1.8-6.4 1.8zM282 495.2c-3.5 0-6.9-1.5-9.3-4.4-41.4-50.6-26.2-148.8-25.5-153 1-6.5 7.2-11 13.7-10 6.5 1 11 7.2 10 13.7-0.2 1.1-14.1 91.8 20.4 134 4.2 5.1 3.4 12.7-1.7 16.9-2.2 1.9-4.9 2.8-7.6 2.8z" fill="#3F3949" p-id="18551"></path></svg>