<?xml version="1.0" standalone="no"?><!DOCTYPE svg PUBLIC "-//W3C//DTD SVG 1.1//EN" "http://www.w3.org/Graphics/SVG/1.1/DTD/svg11.dtd"><svg t="1533463040275" class="icon" style="" viewBox="0 0 1024 1024" version="1.1" xmlns="http://www.w3.org/2000/svg" p-id="3670" xmlns:xlink="http://www.w3.org/1999/xlink" width="32" height="32"><defs><style type="text/css"></style></defs><path d="M930.909091 418.909091c0-232.727273-186.181818-418.909091-418.909091-418.909091S93.090909 186.181818 93.090909 418.909091c0 172.218182 228.072727 428.218182 335.127273 539.927273H302.545455V1024h418.90909v-65.163636h-130.327272C702.836364 847.127273 930.909091 591.127273 930.909091 418.909091zM167.563636 418.909091c0-190.836364 153.6-344.436364 344.436364-344.436364 190.836364 0 344.436364 153.6 344.436364 344.436364 0 148.945455-228.072727 386.327273-344.436364 512-116.363636-125.672727-344.436364-363.054545-344.436364-512z" fill="#707070" p-id="3671"></path><path d="M516.654545 200.145455c-102.4 0-186.181818 83.781818-186.181818 186.181818s83.781818 186.181818 186.181818 186.181818 186.181818-83.781818 186.181819-186.181818-83.781818-186.181818-186.181819-186.181818z m0 297.890909c-60.509091 0-111.709091-51.2-111.70909-111.709091s51.2-111.709091 111.70909-111.709091c60.509091 0 111.709091 51.2 111.709091 111.709091s-51.2 111.709091-111.709091 111.709091z" fill="#707070" p-id="3672"></path></svg>