<?xml version="1.0" standalone="no"?><!DOCTYPE svg PUBLIC "-//W3C//DTD SVG 1.1//EN" "http://www.w3.org/Graphics/SVG/1.1/DTD/svg11.dtd"><svg t="1533368260827" class="icon" style="" viewBox="0 0 1038 1024" version="1.1" xmlns="http://www.w3.org/2000/svg" p-id="16734" xmlns:xlink="http://www.w3.org/1999/xlink" width="48.65625" height="48"><defs><style type="text/css"></style></defs><path d="M456.523715 1024a31.001116 31.001116 0 0 1-16.137568-57.330832l158.402965-97.250077a31.001116 31.001116 0 1 1 32.275135 52.65943L472.661282 1019.328599a30.576444 30.576444 0 0 1-16.137567 4.671401zM456.523715 505.049805a31.001116 31.001116 0 0 1-14.438877-3.397383L16.562665 275.726478A31.001116 31.001116 0 0 1 16.987338 220.943683l424.672828-217.432488a30.576444 30.576444 0 0 1 28.453079 0l424.672828 225.925944a31.001116 31.001116 0 0 1 0 54.782795l-424.672828 217.432488a31.001116 31.001116 0 0 1-13.58953 3.397383z m-358.423867-254.803697l358.848539 190.253427L814.947581 254.917509l-358.848539-188.979408z" fill="#515151" p-id="16735"></path><path d="M456.523715 1024a31.001116 31.001116 0 0 1-16.137568-4.671401l-424.672828-261.173789a31.001116 31.001116 0 0 1-15.712894-26.329715V248.547417a31.001116 31.001116 0 0 1 45.439992-27.603734l424.672828 225.925944a31.001116 31.001116 0 0 1 16.56224 27.179061v518.950196a31.001116 31.001116 0 0 1-31.001116 31.001116z m-394.521057-309.586491L424.673252 937.791416V492.734292L62.002658 299.932829z" fill="#515151" p-id="16736"></path><path d="M316.381681 554.311853a30.576444 30.576444 0 0 1-14.438876-2.123365l-186.006698-100.222787a31.001116 31.001116 0 1 1 28.877752-54.782795l186.006699 98.948769a31.001116 31.001116 0 0 1-14.438877 58.180178zM815.372254 665.576133a23.357006 23.357006 0 0 1-11.041494-2.548037l-81.11251-42.467282a23.357006 23.357006 0 1 1 22.082987-42.467283l81.112511 42.467283a23.357006 23.357006 0 0 1-11.041494 42.467282z" fill="#515151" p-id="16737"></path><path d="M815.372254 768.771631a23.357006 23.357006 0 0 1-23.357006-23.357006v-103.195497a23.357006 23.357006 0 0 1 46.714012 0v103.62017a23.357006 23.357006 0 0 1-23.357006 22.932333z" fill="#515151" p-id="16738"></path><path d="M815.372254 865.172362a222.953235 222.953235 0 1 1 222.953235-222.953234 223.377907 223.377907 0 0 1-222.953235 222.953234z m0-382.205545a161.375675 161.375675 0 1 0 161.375675 161.375675 161.375675 161.375675 0 0 0-161.375675-163.499039z" fill="#515151" p-id="16739"></path></svg>