<?xml version="1.0" standalone="no"?><!DOCTYPE svg PUBLIC "-//W3C//DTD SVG 1.1//EN" "http://www.w3.org/Graphics/SVG/1.1/DTD/svg11.dtd"><svg t="1533294339139" class="icon" style="" viewBox="0 0 1024 1024" version="1.1" xmlns="http://www.w3.org/2000/svg" p-id="16011" xmlns:xlink="http://www.w3.org/1999/xlink" width="48" height="48"><defs><style type="text/css"></style></defs><path d="M848 512a336 336 0 0 0-176-288V64H352v160a336 336 0 0 0 0 592v144h320v-144a336 336 0 0 0 176-304zM416 128h192v48H416z m192 768H416v-32h192z m-64-112v-64a32 32 0 0 0-64 0v48a272 272 0 0 1-240-224h64a32 32 0 0 0 0-64h-64a272 272 0 0 1 240-240v48a32 32 0 0 0 64 0v-48a272 272 0 0 1 240 240h-48a32 32 0 0 0 0 64h48a272 272 0 0 1-240 240z" fill="" p-id="16012"></path><path d="M640 352l-128 128-64-64h-32a32 32 0 0 0 0 48l80 80h48v-32l128-128a32 32 0 0 0 0-48z" fill="" p-id="16013"></path></svg>