<?xml version="1.0" standalone="no"?><!DOCTYPE svg PUBLIC "-//W3C//DTD SVG 1.1//EN" "http://www.w3.org/Graphics/SVG/1.1/DTD/svg11.dtd"><svg t="1533291774572" class="icon" style="" viewBox="0 0 1024 1024" version="1.1" xmlns="http://www.w3.org/2000/svg" p-id="9104" xmlns:xlink="http://www.w3.org/1999/xlink" width="48" height="48"><defs><style type="text/css"></style></defs><path d="M752.785248 905.530359c-14.330813 0-27.575376-7.153475-35.428118-19.134379l-38.424381-58.683396c-50.299461 29.87341-107.584324 45.569556-166.934825 45.569556-57.206014 0-112.697062-14.652434-161.731826-42.546318l-36.43863 55.651858c-7.843404 11.985054-21.090043 19.142679-35.43123 19.142679-8.241799 0-16.253277-2.392446-23.165017-6.916928-9.45981-6.194837-15.940993-15.700296-18.25044-26.768211-2.310484-11.068952-0.171185-22.373414 6.022614-31.833224l39.558355-60.417037c-0.790565-0.773966-1.571793-1.545856-2.342646-2.317747-61.907907-61.911019-96.002853-144.225264-96.002853-231.776746 0-87.548369 34.094946-169.861576 96.003891-231.776746 61.911019-61.911019 144.225264-96.007003 231.778821-96.007003 87.554594 0 169.867801 34.095984 231.779858 96.007003 61.909982 61.909982 96.004928 144.223189 96.004928 231.777783 0 86.608405-33.357293 168.083323-94.003615 229.758833l42.398995 64.753735c6.192762 9.458772 8.332061 20.763234 6.023651 31.831149-2.309447 11.072065-8.792705 20.579599-18.25459 26.771323C769.037487 903.137913 761.028085 905.530359 752.785248 905.530359zM690.81198 770.095724l61.25844 93.558533c0.24381 0.372458 0.702379 0.529119 1.148498 0.237585 0.096486-0.062249 0.286347-0.187785 0.356896-0.520819 0.069512-0.337183-0.057062-0.531194-0.117236-0.624567l-61.47735-93.890529 13.014241-11.91243c3.418521-3.129062 6.504008-6.074488 9.432835-9.00539 54.075915-54.075915 83.854914-125.9686 83.854914-202.437641 0-76.470079-29.778999-148.361726-83.850764-202.433491-54.072802-54.072802-125.965487-83.851801-202.434529-83.851801S363.636199 288.994172 309.564434 343.066975c-54.070727 54.075915-83.849726 125.9686-83.849726 202.432454 0 76.468004 29.778999 148.360689 83.849726 202.434529 4.235023 4.236061 8.831092 8.537483 13.660596 12.785994l13.513273 11.88753-59.01643 90.137937c-0.250034 0.382833-0.142136 0.896389 0.240697 1.147461 0.148361 0.096486 0.273897 0.136948 0.432632 0.136948 0.212685 0 0.508369-0.065362 0.709641-0.372458l58.842132-89.867153 17.367538 11.407173c46.403696 30.47619 100.58336 46.584219 156.682375 46.584219 58.087878 0 113.876685-17.188053 161.333431-49.708093L690.81198 770.095724zM225.268588 316.365163c-3.952827 7.069439-11.294087 11.05339-18.855295 11.05339-3.564806 0-7.1763-0.881864-10.507672-2.743117-10.403923-5.815117-14.12539-18.961119-8.311311-29.362967 46.66618-83.510468 111.688624-121.503254 158.016584-138.67367 50.488284-18.711084 90.227161-17.444312 91.893366-17.381025 11.909317 0.451307 21.197941 10.472397 20.746634 22.380677-0.45027 11.885455-10.451647 21.146067-22.30909 20.750784-0.521856-0.018675-34.389593-0.811315-77.068709 15.367262C302.193086 219.242861 257.24291 259.150849 225.268588 316.365163L225.268588 316.365163zM798.994934 321.513175c-31.974322-57.214314-76.924498-97.122302-133.603469-118.608665-42.679117-16.178578-76.546853-15.385937-77.068709-15.367262-11.857443 0.395283-21.858821-8.865329-22.30909-20.750784-0.452344-11.90828 8.837317-21.92937 20.745597-22.380677 1.667242-0.063287 41.40612-1.330059 91.894403 17.381025 46.326922 17.170415 111.349366 55.163202 158.016584 138.67367 5.814079 10.401848 2.092612 23.54785-8.312349 29.362967-3.331372 1.861252-6.941828 2.743117-10.507672 2.743117C810.289021 332.565528 802.948798 328.582614 798.994934 321.513175L798.994934 321.513175zM420.586991 694.728494l-26.518176-24.806322 102.897994-109.995445 1.637155-182.785556 36.309982 0.324734-1.762691 196.934809L420.586991 694.728494zM511.998963 0c-282.771323 0-512 229.229714-512 512 0 282.770286 229.229714 512 512 512 282.770286 0 512-229.229714 512-512C1023.998963 229.229714 794.769248 0 511.998963 0z" p-id="9105"></path></svg>