<?xml version="1.0" standalone="no"?><!DOCTYPE svg PUBLIC "-//W3C//DTD SVG 1.1//EN" "http://www.w3.org/Graphics/SVG/1.1/DTD/svg11.dtd"><svg t="1533175679805" class="icon" style="" viewBox="0 0 1024 1024" version="1.1" xmlns="http://www.w3.org/2000/svg" p-id="2212" xmlns:xlink="http://www.w3.org/1999/xlink" width="200" height="200"><defs><style type="text/css"></style></defs><path d="M902.174374 942.511058c6.66684 6.66684 15.400758 9.999748 24.133653 9.999748s17.466814-3.332908 24.13263-9.999748c13.33368-13.332656 13.33368-34.932604 0-48.266283L816.820404 760.610194c79.380932-79.128175 124.171044-186.079022 124.171044-299.366182 0-233.349629-189.833533-423.183162-423.183162-423.183162-233.333256 0-423.166789 189.834556-423.166789 423.184185s189.833533 423.183162 423.166789 423.183162c35.750225 0 72.399937-4.933359 108.932991-14.650675 18.23327-4.849448 29.067013-23.532973 24.216541-41.74987-4.833075-18.216897-23.532973-29.049616-41.74987-24.216541-30.815843 8.200776-61.566194 12.350283-91.399663 12.350283-195.700147 0-354.899986-159.216211-354.899986-354.916359s159.199839-354.916359 354.899986-354.916359 354.916359 159.216211 354.916359 354.916359c0 106.899682-47.566342 207.082382-130.516566 274.866185-14.59951 11.932774-16.766872 33.432437-4.833075 48.03297" p-id="2213" data-spm-anchor-id="a313x.7781069.0.i0" class="selected" fill="#ffffff"></path></svg>