<?xml version="1.0" standalone="no"?><!DOCTYPE svg PUBLIC "-//W3C//DTD SVG 1.1//EN" "http://www.w3.org/Graphics/SVG/1.1/DTD/svg11.dtd"><svg t="1533374098613" class="icon" style="" viewBox="0 0 1024 1024" version="1.1" xmlns="http://www.w3.org/2000/svg" p-id="6088" xmlns:xlink="http://www.w3.org/1999/xlink" width="48" height="48"><defs><style type="text/css"></style></defs><path d="M596.2 531.8s1.2 21.2 85.2 8.8c0 0-10.1 230.6 6.3 305.9 0 0-6.3 21.3-26.3-52.7s-25.1-91.5-33.8-95.3c-8.7-3.8-48.9 22.6-68.9 65.2-20 42.6-31.4 94-31.4 94s-13.3 10.1-13.6-6.3c-0.2-16.3 11.1-101.5 11.1-101.5s-23.1 59.7-27.1 90.9c-4 31.3-12.1 3.2-10.5-6.4 1.6-9.6 10.9-52.5-0.2-78.1 0 0-10.2-4.7-76.9 95.8 0 0-5.6 15-12.1 8.7-6.4-6.3 0.8-15.9 7.2-32s34.6-82 43.4-90.1c0 0-26.5 4.8-41-2.4-14.5-7.2-32.2-20.9-20.9-74 4.5-21.3 5-0.3 3.2 15.3-3.7 33 9.6 51.8 34.8 46.3 26.5-5.7 40-26.9 40-26.9l131.5-165.2z m312.1-329.7s-28 28.4-86.5 27.6c-27.1-0.3-44.1-1.9-47.6-12.5-5.4-16.7 41-41.3 99.1-38 0 0-51.5-27.1-213.2-14.6-161.7 12.6-382.3 111.5-382.3 111.5s1.3 8.8-20-6.3c-21.3-15-47.6-26.3-55.2-25.1-7.6 1.2-21.3 0-23.8 32.6l-66.9 163s44.3 32.6 96.9 12.5c52.6-20 52.7-87.7 40.1-110.3 0 0 7.6-1.3 15.1 11.3 7.5 12.5 90.1 60.1 119 72.7 28.9 12.5 185.5 67.5 223.1 77 37.6 9.5 81.4 1.9 99-14.4 17.6-16.3 109-116.6 131.7-155.4 0 0-282.4 46.4-362.5 12.5 0 0-12.3 6.3-18.6 2.5-6.3-3.8 1.3-26.3 7.6-23.8s11.1 8.8 11.1 8.8 91.7 33.9 371.2-16.3c0 0 82.8-80.2 62.7-115.3z m-441.5 59.1c-15.6 1.8-15.8-24.3-9.3-40.4 4.5-11.1 28.3-15.4 27.8 3-0.7 23.4-3.9 35.7-18.5 37.4z m0 0" p-id="6089" fill="#1296db"></path></svg>