<?xml version="1.0" standalone="no"?><!DOCTYPE svg PUBLIC "-//W3C//DTD SVG 1.1//EN" "http://www.w3.org/Graphics/SVG/1.1/DTD/svg11.dtd"><svg t="1533375510476" class="icon" style="" viewBox="0 0 1024 1024" version="1.1" xmlns="http://www.w3.org/2000/svg" p-id="7431" xmlns:xlink="http://www.w3.org/1999/xlink" width="48" height="48"><defs><style type="text/css"></style></defs><path d="M768 448C732.64 448 704 476.64 704 512 704 547.36 732.64 576 768 576 803.36 576 832 547.36 832 512 832 476.64 803.36 448 768 448M512 448C476.64 448 448 476.64 448 512 448 547.36 476.64 576 512 576 547.36 576 576 547.36 576 512 576 476.64 547.36 448 512 448M256 448C220.64 448 192 476.64 192 512 192 547.36 220.64 576 256 576 291.36 576 320 547.36 320 512 320 476.64 291.36 448 256 448" p-id="7432"></path></svg>