<?xml version="1.0" standalone="no"?><!DOCTYPE svg PUBLIC "-//W3C//DTD SVG 1.1//EN" "http://www.w3.org/Graphics/SVG/1.1/DTD/svg11.dtd"><svg t="1533357567938" class="icon" style="" viewBox="0 0 1024 1024" version="1.1" xmlns="http://www.w3.org/2000/svg" p-id="9054" xmlns:xlink="http://www.w3.org/1999/xlink" width="48" height="48"><defs><style type="text/css"></style></defs><path d="M819.2 128H409.6c-56.32 0-102.4 46.08-102.4 102.4v409.6c0 56.32 46.08 102.4 102.4 102.4h409.6c56.32 0 102.4-46.08 102.4-102.4V230.4c0-56.32-46.08-102.4-102.4-102.4z m51.2 512c0 28.16-23.04 51.2-51.2 51.2H409.6c-28.16 0-51.2-23.04-51.2-51.2V230.4c0-28.16 23.04-51.2 51.2-51.2h409.6c28.16 0 51.2 23.04 51.2 51.2v409.6z m-204.8 204.8c0 28.16-23.04 51.2-51.2 51.2H204.8c-28.16 0-51.2-23.04-51.2-51.2V435.2c0-28.16 23.04-51.2 51.2-51.2h51.2v-51.2H204.8c-56.32 0-102.4 46.08-102.4 102.4v409.6c0 56.32 46.08 102.4 102.4 102.4h409.6c56.32 0 102.4-46.08 102.4-102.4v-51.2h-51.2v51.2z" p-id="9055"></path></svg>