<?xml version="1.0" standalone="no"?><!DOCTYPE svg PUBLIC "-//W3C//DTD SVG 1.1//EN" "http://www.w3.org/Graphics/SVG/1.1/DTD/svg11.dtd"><svg t="1533195192345" class="icon" style="" viewBox="0 0 1025 1024" version="1.1" xmlns="http://www.w3.org/2000/svg" p-id="30547" xmlns:xlink="http://www.w3.org/1999/xlink" width="32.03125" height="32"><defs><style type="text/css"></style></defs><path d="M515.679992 112.61258c14.683892-0.420914 29.596279-3.018556 43.847231-6.409921 28.333537-6.734627 55.885376-18.664537 78.109645-37.762014a123.315827 123.315827 0 0 0 33.180063-46.408795l-11.593179 8.827172h109.437685c3.355287 0 7.011228 0.348757 10.306384-0.469019 4.810448-1.202612 9.500634-2.705877 14.431343-3.607835l2.693851-0.469019c1.082351-0.180392 5.20731-1.202612 0.877906-0.168366a51.928783 51.928783 0 0 1 7.756847-0.781698 126.923662 126.923662 0 0 1 17.846761 0c1.623526 0.108235 3.235026 0.276601 4.810448 0.432941 3.523653 0.336731-1.791892-0.37281 1.767839 0.228496s7.408089 1.334899 11.06403 2.284963q4.810448 1.262743 9.620895 2.982477c0.877907 0.324705 1.743787 0.685489 2.63372 0.998168 2.994504 1.058298-2.26091-1.082351 0.637385 0.252549 1.76784 0.817776 3.535679 1.6115 5.26744 2.501432a102.943581 102.943581 0 0 1 10.486776 6.145347c1.467187 0.974116 2.898295 1.996336 4.317377 3.042609 2.85019 2.104571-1.791892-1.503265 0.986142 0.769671 1.202612 0.938037 2.272937 1.876075 3.379339 2.85019a110.736506 110.736506 0 0 1 18.135388 20.324142c15.080754 21.911589 23.691455 47.996242 34.394701 72.156715q16.33147 36.884108 33.673134 73.359328c12.879974 27.106873 25.976418 54.117537 39.914689 80.719312l4.317377-16.451731-54.47832 36.078357-96.882416 63.966929-32.987645 21.81538c-6.265608 4.136985-13.505332 7.552403-13.950299 16.102973-0.637384 12.122328 0 24.461127 0 36.595481v514.056467c0 14.431343-0.348757 29.007 0 43.486447v1.912153l12.026119-12.026119H512.974116l12.026119 12.026119v-1.02222a12.218537 12.218537 0 0 0-12.026119-12.02612H204.203504l12.02612 12.02612V418.56908c0-6.145347-0.841828-10.967821-6.746653-15.020623-7.215672-4.930709-14.551604-9.620895-21.827407-14.431343l-91.759289-60.683798-73.948607-48.910227-3.956594-2.621694 4.317377 16.451731c11.220369-21.406492 21.851459-43.13769 32.338235-64.941044q16.908724-35.08019 32.927514-70.569267 8.899328-19.734862 17.51003-39.602011c5.532015-12.783765 10.498802-25.928313 17.209376-38.170902a121.788509 121.788509 0 0 1 17.016959-24.364918 114.717151 114.717151 0 0 1 9.07972-8.92338q1.202612-1.094377 2.537511-2.152676c0.180392-0.15634 3.030582-2.405224 0.974116-0.817776 1.683657-1.286795 3.415418-2.513459 5.171231-3.692018a102.715084 102.715084 0 0 1 10.486776-6.145347c1.443134-0.733593 2.922347-1.419082 4.389534-2.104571 0.444966-0.204444 3.43947-1.383004 0.637384-0.288627 1.202612-0.456993 2.333067-0.926011 3.511627-1.358951a113.598722 113.598722 0 0 1 20.63682-5.279467c3.607836-0.58928-1.803918 0.132287 1.76784-0.228496 1.6115-0.168366 3.223-0.324705 4.810448-0.43294q4.630056-0.324705 9.272138-0.300653c5.26744 0 11.172265-0.072157 16.331469 1.106403-4.317377-0.986142-0.204444 0 0.877907 0.168365l2.693851 0.469019q3.054634 0.565228 6.01306 1.262743c2.333067 0.553201 4.630056 1.202612 6.93907 1.876074a24.906093 24.906093 0 0 0 6.81881 0.926011h114.332315l-11.484943-8.718936c13.048339 31.099544 37.3411 54.358059 67.610842 68.813454 22.969888 10.967821 47.563302 17.341664 72.758021 20.444403 4.894631 0.613332 9.837366 1.202612 14.768075 1.298821 15.477615 0.444966 15.465589-23.607272 0-24.052239-3.607836-0.108235-7.215672-0.456993-10.823508-0.841828-1.707709-0.180392-3.415418-0.408888-5.123127-0.613332 4.389534 0.517123 0.264575 0-0.64941-0.108235l-3.451496-0.52915q-7.877108-1.274769-15.633955-3.06666-8.538545-1.960257-16.908724-4.569925-4.24522-1.322873-8.418283-2.838164-2.405224-0.853854-4.750317-1.779866l-1.912153-0.757646-1.912153-0.781697 0.481045 0.204444a169.195471 169.195471 0 0 1-18.508198-9.344295q-4.233194-2.489407-8.285996-5.255414-2.272937-1.551369-4.473716-3.198948c-0.300653-0.21647-1.803918-1.383004-0.204445-0.132287q-1.310847-1.02222-2.597641-2.092545a119.900409 119.900409 0 0 1-9.07972-8.3341q-2.188754-2.224832-4.257246-4.581952-0.950063-1.070325-1.864049-2.176727c-0.276601-0.324705-2.321041-2.874242-0.998168-1.202612a99.095222 99.095222 0 0 1-7.215671-10.727299q-1.635552-2.57359-2.958426-5.255414-0.697515-1.358951-1.346925-2.741955c-0.180392-0.37281-1.731761-3.848358-1.046272-2.224832-2.092545-4.978813-5.808616-8.827172-11.593179-8.827172h-110.50801c-1.695683 0-3.487575-0.144313-5.183257 0-2.597642 0.21647 3.776201 1.202612 2.032414 0.300653-4.690186-2.405224-11.184291-3.042608-16.27134-3.884436A141.114483 141.114483 0 0 0 200.944426 0.481045c-36.078358 3.259078-66.793066 21.310283-88.416028 50.29323-16.078921 21.550806-24.773806 47.719641-35.525157 72.156716q-16.92075 38.375346-34.875745 76.257622c-13.084418 27.563865-26.457462 55.0676-40.564101 82.102316a12.338798 12.338798 0 0 0 4.281299 16.379574l64.941044 42.969324 103.556912 68.488749 23.751586 15.706112-6.01306-10.378541v522.895664c0 24.1725-0.685489 48.453234 0 72.613708v0.974116a12.206511 12.206511 0 0 0 12.02612 12.026119h308.842767l-12.026119-12.026119v1.02222a12.218537 12.218537 0 0 0 12.026119 12.026119h308.770612a12.206511 12.206511 0 0 0 12.026119-12.026119V439.771128c0-7.720769 0.444966-15.633955 0-23.306619v-0.974116l-6.01306 10.378541 64.941044-42.969324 103.556913-68.488749 23.751585-15.706112a12.338798 12.338798 0 0 0 4.317377-16.451731c-11.65331-22.236294-22.681261-44.821346-33.564899-67.442476q-17.053037-35.465026-33.204115-71.350966-9.332269-20.757082-18.339832-41.658477c-5.315545-12.350824-10.210175-24.882041-17.004932-36.523324-18.484145-31.652746-48.381078-55.933481-85.036689-62.175036-20.612768-3.511627-42.572462-2.717903-62.656082 3.463522a8.177761 8.177761 0 0 0-1.8881 0.613332c0.553201-0.360784 4.810448-0.240522 1.202612-0.348757-7.612533-0.240522-15.273171 0-22.849627 0h-91.735237c-5.85672 0-9.51266 3.848358-11.593179 8.827171 0.697515-1.659604-0.348757 0.733593-0.52915 1.106403-0.444966 0.926011-0.865881 1.852022-1.322873 2.766008q-1.202612 2.405224-2.549537 4.810447a105.613379 105.613379 0 0 1-6.710575 10.426646c-0.456993 0.625358-0.913985 1.202612-1.395029 1.864048 1.202612-1.479213-0.072157 0-0.264575 0.288627-1.202612 1.467187-2.405224 2.922347-3.728097 4.341429q-3.788228 4.185089-7.985343 7.985343a89.955372 89.955372 0 0 1-15.15291 11.508996 158.744774 158.744774 0 0 1-18.844929 10.25828c-1.262743 0.58928-2.549537 1.202612-3.824306 1.719735-3.162869 1.407056 2.248884-0.865881-0.950063 0.396862l-1.912153 0.769672q-4.690186 1.852022-9.464556 3.463522-8.742989 2.958425-17.714474 5.159205-7.877108 1.948231-15.874477 3.367314-3.210974 0.565228-6.433974 1.058298l-3.283131 0.469019c2.898295-0.420914 1.202612-0.168366-0.43294 0-4.509795 0.541175-9.055668 1.02222-13.589515 1.202612-15.441537 0.43294-15.513694 24.497205 0 24.052238z" fill="#dbdbdb" p-id="30548"></path><path d="M632.02067 414.408042a63.882745 63.882745 0 0 1-11.160239 90.195895c-25.735895 19.831071-63.209283 16.632123-85.457603-6.878941a64.616339 64.616339 0 0 1-17.004933-50.377413l-2.982477 5.195284 1.202612-0.58928-9.043642-5.195284a63.738432 63.738432 0 0 1-51.916757 69.438813c-31.400197 6.01306-63.413727-13.649645-72.63776-44.147884a64.315686 64.315686 0 0 1 10.931743-58.182365c2.020388-2.537511 2.477381-6.01306 0-8.502466-2.092545-2.092545-6.470052-2.561563-8.502467 0a77.135529 77.135529 0 0 0-15.910555 62.018697 75.920891 75.920891 0 0 0 80.394607 61.633861 75.764551 75.764551 0 0 0 69.667308-82.258656c-0.396862-4.630056-4.810448-7.372011-9.043641-5.195283a7.09541 7.09541 0 0 0-4.18509 6.337765 65.494245 65.494245 0 0 0-0.228496 8.622727 78.578663 78.578663 0 0 0 2.008362 15.032649 74.345469 74.345469 0 0 0 11.196317 25.25485 75.848734 75.848734 0 0 0 135.197632-21.033682c7.323907-24.184526 1.587448-50.257152-14.022455-69.871753-2.020388-2.549537-6.385869-2.116597-8.502466 0-2.513459 2.513459-2.032414 6.01306 0 8.502466z" fill="#dbdbdb" p-id="30549"></path></svg>