<?xml version="1.0" standalone="no"?><!DOCTYPE svg PUBLIC "-//W3C//DTD SVG 1.1//EN" "http://www.w3.org/Graphics/SVG/1.1/DTD/svg11.dtd"><svg t="1533296429931" class="icon" style="" viewBox="0 0 1024 1024" version="1.1" xmlns="http://www.w3.org/2000/svg" p-id="22265" xmlns:xlink="http://www.w3.org/1999/xlink" width="48" height="48"><defs><style type="text/css"></style></defs><path d="M241.8 338.6m-149.4 0a149.4 149.4 0 1 0 298.8 0 149.4 149.4 0 1 0-298.8 0Z" fill="#FFF100" p-id="22266"></path><path d="M751.5 405.7L511 639.7 277.1 407.2z" fill="#9FDCF9" p-id="22267"></path><path d="M659.1 406L471.3 596.7l39.7 43 228.9-234z" fill="#48BEFE" p-id="22268"></path><path d="M415.9 464.8m-18 0a18 18 0 1 0 36 0 18 18 0 1 0-36 0Z" fill="#FFFFFF" p-id="22269"></path><path d="M427.219576 549.661051a18 18 0 1 0 14.756656-32.836582 18 18 0 1 0-14.756656 32.836582Z" fill="#FFFFFF" p-id="22270"></path><path d="M479.639037 511.245693a18 18 0 1 0 22.924986-27.756891 18 18 0 1 0-22.924986 27.756891Z" fill="#FFFFFF" p-id="22271"></path><path d="M593.211471 496.783173a18 18 0 1 0 22.924986-27.756891 18 18 0 1 0-22.924986 27.756891Z" fill="#FFFFFF" p-id="22272"></path><path d="M511.6 513.5L688.9 173c2.6-4.9 6.9-8.7 12.1-10.5l201.1-71c11.2-4 23.5 1.8 27.7 12.9l0.6 1.7c4.3 11.4-1.6 24.2-13.2 28.3l-184.9 65.1c-5.2 1.8-9.5 5.6-12.1 10.4l-170 323.9c-5.7 10.9-19.2 14.9-30 8.9-10.2-5.8-14.1-18.7-8.6-29.2z" fill="#FFFFFF" p-id="22273"></path><path d="M946.6 98C939 77.8 916.3 67.3 896 74.4l-201.1 71c-9.5 3.4-17.4 10.2-22 19.1L605.6 294c-0.8-0.1-1.4-0.5-2.2-0.5H400c-19.5-72.5-84-122.8-159.8-122.8-91.5 0-165.9 74.4-165.9 165.9s74.4 165.9 165.9 165.9c6.1 0 12.1-0.3 18-1 9.9-1.1 17.1-9.9 16-19.8s-10.1-17-19.8-16c-4.7 0.5-9.4 0.8-14.2 0.8-71.6 0-129.9-58.3-129.9-129.9s58.3-129.9 129.9-129.9c56 0 104.1 35.2 122.2 86.8H202.8c-12.2 0-23 7.3-27.7 18.5-4.7 11.3-2.1 24.1 6.5 32.7l74.5 74.5 0.6 0.6s232.7 231.7 233.7 232.5v263.4H372.9c-9.9 0-18 8.1-18 18s8.1 18 18 18h270.3c9.9 0 18-8.1 18-18s-8.1-18-18-18H526.4V652.4c1-0.8 308.8-307.6 308.8-307.6 8.6-8.6 11.1-21.4 6.5-32.7-4.7-11.2-15.5-18.5-27.7-18.5h-91.9c-9.9 0-18 8.1-18 18s8.1 18 18 18h77.4l-59.3 59.3h-93.6l89.6-170.7c0.4-0.8 1.2-1.5 2.1-1.8l184.9-65.1c10.2-3.6 18.3-11 22.9-20.7 4.5-9.9 5-20.9 0.5-32.6zM704.2 424.8L508.4 620.5 312.7 424.8h4.3c9.9 0 18-8.1 18-18s-8.1-18-18-18h-40.3l-59.3-59.3h369.8l-30.9 59.3H437.1c-9.9 0-18 8.1-18 18s8.1 18 18 18h100.4l-41.8 80.3c-10 19.2-3 42.6 15.9 53.2 6 3.4 12.6 5.1 19.3 5.1 3.8 0 7.6-0.6 11.4-1.7 10.4-3.1 18.9-10.1 23.9-19.7l61.5-117.3h76.5v0.1z m209.3-309.5c-0.3 0.7-1 1.5-2.2 2l-184.9 65.1c-9.5 3.4-17.3 10.1-22 19.1l-170 323.9c-0.6 1.2-1.6 1.7-2.3 1.9s-1.8 0.3-2.9-0.3c-1.8-1-2.5-3.3-1.5-5.1l177.4-340.5c0.4-0.8 1.2-1.5 2.1-1.9l201.1-71c0.4-0.1 0.8-0.2 1.2-0.2 1.6 0 3.2 1.2 4.3 4.2 0.2 1.1 0 2.1-0.3 2.8z" fill="#662F0A" p-id="22274"></path><path d="M378.3 388.8H372c-10 0-18 8.1-18 18s8 18 18 18h6.3c9.9 0 18-8.1 18-18s-8.1-18-18-18z" fill="#662F0A" p-id="22275"></path></svg>