<?xml version="1.0" standalone="no"?><!DOCTYPE svg PUBLIC "-//W3C//DTD SVG 1.1//EN" "http://www.w3.org/Graphics/SVG/1.1/DTD/svg11.dtd"><svg t="1533297475740" class="icon" style="" viewBox="0 0 1024 1024" version="1.1" xmlns="http://www.w3.org/2000/svg" p-id="26126" xmlns:xlink="http://www.w3.org/1999/xlink" width="48" height="48"><defs><style type="text/css"></style></defs><path d="M430.402 81.27a81.27 48.762 0 1 0 162.54 0 81.27 48.762 0 1 0-162.54 0Z" fill="#8CC63F" p-id="26127"></path><path d="M430.402 81.27a81.27 48.762 0 1 0 162.54 0 81.27 48.762 0 1 0-162.54 0Z" fill="#009245" p-id="26128"></path><path d="M511.664 32.508c-8.554 0-16.638 1.012-24.38 2.482 32.89 6.244 56.89 24.482 56.89 46.282s-24 40.038-56.89 46.282c7.742 1.47 15.828 2.482 24.38 2.482 44.884 0 81.27-21.832 81.27-48.762s-36.386-48.766-81.27-48.766z" fill="#8CC63F" p-id="26129"></path><path d="M950.52 780.19H462.896l-81.266 65.016-81.274-65.016H72.806c0 125.676 101.878 227.556 227.554 227.556h422.604c125.676 0 227.556-101.88 227.556-227.556z" fill="#FCC062" p-id="26130"></path><path d="M787.98 779.854c0 125.446-101.88 227.892-227.556 227.892h162.54c125.676 0 227.556-102.448 227.556-227.892h-162.54z" fill="#FDCD81" p-id="26131"></path><path d="M235.346 779.854c0 129.628 101.88 227.892 227.556 227.892h-162.54c-125.676 0-227.556-98.266-227.556-227.892h162.54z" fill="#BD904A" p-id="26132"></path><path d="M89.06 455.116h845.21V698.92H89.06z" fill="#FFBE78" p-id="26133"></path><path d="M934.266 780.19H462.9l-81.27 65.016-81.27-65.016H89.06v-77.078l845.206 1.75z" fill="#F7931E" p-id="26134"></path><path d="M691.468 585.412h185.908c40.396 0 73.346 32.612 73.346 73.008v0.1c0 40.396-32.95 73.244-73.346 73.244H162.204c-40.396 0-72.874-32.914-72.874-73.31v0.05c0-40.396 32.478-73.092 72.874-73.092h40.028" fill="#A67C52" p-id="26135"></path><path d="M877.378 748.492H162.204c-49.388 0-89.57-40.364-89.6-89.986v-0.026-0.026c0.03-49.5 40.212-89.768 89.6-89.768h40.028v33.452H162.204c-30.952 0-56.134 25.272-56.148 56.342 0.012 31.19 25.196 56.56 56.148 56.56h715.174c31.22 0 56.62-25.352 56.62-56.518 0-31.136-25.398-56.384-56.62-56.384h-185.908v-33.452h185.908c49.666 0 90.072 40.256 90.072 89.734 0 49.712-40.406 90.072-90.072 90.072z" fill="" p-id="26136"></path><path d="M544.17 537.326l73.144 73.142 73.142-73.142h243.542v-50.178H89.33v50.178z" fill="#F15A24" p-id="26137"></path><path d="M933.998 487.148H381.63l-113.776 113.776-113.778-113.776H89.33V439.06h844.668z" fill="#F7931E" p-id="26138"></path><path d="M950.52 438.856H72.806c0-125.676 101.88-227.556 227.556-227.556h422.604c125.674 0.002 227.554 101.882 227.554 227.556z" fill="#FCC062" p-id="26139"></path><path d="M722.964 211.166h-146.286c125.676 0 227.556 102.448 227.556 227.892h146.286c0-125.444-101.88-227.892-227.556-227.892z" fill="#FDCD81" p-id="26140"></path><path d="M300.36 211.166h146.286c-125.676 0-227.556 98.266-227.556 227.892H72.806c0-129.626 101.88-227.892 227.554-227.892z" fill="#BD904A" p-id="26141"></path><path d="M722.964 1024H300.36c-134.438 0-243.81-109.372-243.81-243.81v-16.254h249.508l75.572 60.454 75.564-60.454h509.578v16.254C966.776 914.628 857.402 1024 722.964 1024zM89.678 796.446c8.326 108.948 99.64 195.046 210.684 195.046h422.602c111.044 0 202.356-86.102 210.684-195.046H468.598l-86.966 69.576-86.978-69.576H89.678zM267.854 624.58l-120.706-120.706H89.33v-33.452h71.676l106.848 106.85 106.85-106.85h559.294v33.452H388.56z" fill="" p-id="26142"></path><path d="M89.33 520.6h64.814v33.452H89.33zM617.314 634.124l-80.07-80.072h-155.208V520.6h169.064l66.214 66.214 66.216-66.214h250.468v33.452H697.386zM722.964 195.048h-194.574V145.354c46.444-5.148 80.8-31.44 80.8-64.086s-34.356-58.936-80.8-64.082V0h-33.452v17.186c-46.444 5.148-80.8 31.44-80.8 64.084s34.356 58.938 80.8 64.086v49.692h-194.574c-134.438 0-243.81 109.374-243.81 243.81v16.254h910.224v-16.254c-0.002-134.438-109.376-243.81-243.814-243.81zM446.648 81.27c0-15.346 27.804-32.508 65.016-32.508s65.016 17.164 65.016 32.508-27.806 32.51-65.016 32.51-65.016-17.166-65.016-32.51zM89.678 422.604c8.326-108.948 99.64-195.048 210.684-195.048h422.602c111.044 0 202.356 86.102 210.684 195.05l-843.97-0.002z" fill="" p-id="26143"></path><path d="M528.398 64.814h31.362v33.452h-31.362z" fill="#FF1D25" p-id="26144"></path><path d="M137.418 374.246h121.264v33.452H137.418zM275.416 374.246h48.088v33.452h-48.088zM446.858 374.246h177.714v33.452h-177.714zM170.878 666.952h64.814v33.452H170.878zM235.692 633.5h31.362v33.452h-31.362zM365.318 666.952h98.266v33.452h-98.266zM545.116 568.686H331.858v33.452h129.628v14.636h33.452v-14.636h50.178zM528.398 650.226h48.088v33.452h-48.088z" fill="" p-id="26145"></path><path d="M877.378 568.686h-185.908v33.452h185.908a56.542 56.542 0 0 1 38.034 14.636h-46.228v33.452h64.196c0.402 2.708 0.616 5.478 0.616 8.296 0 31.164-25.398 56.518-56.62 56.518h-169.182v-16.726H674.74v16.726H162.204c-30.952 0-56.134-25.37-56.148-56.56 0.012-31.07 25.196-56.342 56.148-56.342h40.028v-33.452H162.204c-49.388 0-89.57 40.268-89.6 89.768v0.052c0.03 49.622 40.212 89.986 89.6 89.986h715.174c49.666 0 90.072-40.36 90.072-90.072 0-49.478-40.406-89.734-90.072-89.734z" fill="" p-id="26146"></path><path d="M706.112 666.952h81.54v33.452h-81.54zM490.764 811.214h244.618v33.452H490.764zM766.744 811.214h48.088v33.452h-48.088zM463.584 878.12h81.54v33.452h-81.54z" fill="" p-id="26147"></path></svg>