<?xml version="1.0" standalone="no"?><!DOCTYPE svg PUBLIC "-//W3C//DTD SVG 1.1//EN" "http://www.w3.org/Graphics/SVG/1.1/DTD/svg11.dtd"><svg t="1533200045683" class="icon" style="" viewBox="0 0 1024 1024" version="1.1" xmlns="http://www.w3.org/2000/svg" p-id="53372" data-spm-anchor-id="a313x.7781069.0.i113" xmlns:xlink="http://www.w3.org/1999/xlink" width="32" height="32"><defs><style type="text/css"></style></defs><path d="M541.184 232.448 482.816 232.448c-16.384 0-29.184-13.312-29.184-29.184 0-16.384 13.312-29.184 29.184-29.184l58.368 0c16.384 0 29.184 13.312 29.184 29.184C570.368 219.136 557.568 232.448 541.184 232.448z" p-id="53373" data-spm-anchor-id="a313x.7781069.0.i127" class="" fill="#1296db"></path><path d="M725.504 929.28 298.496 929.28c-48.64 0-88.064-39.424-88.064-88.064L210.432 182.272c0-48.64 39.424-88.064 88.064-88.064l426.496 0c48.64 0 88.064 39.424 88.064 88.064l0 659.456C813.056 889.856 773.632 929.28 725.504 929.28zM298.496 153.088c-16.384 0-29.184 13.312-29.184 29.184l0 659.456c0 16.384 13.312 29.184 29.184 29.184l426.496 0c16.384 0 29.184-13.312 29.184-29.184L754.176 182.272c0-16.384-13.312-29.184-29.184-29.184L298.496 153.088z" p-id="53374" data-spm-anchor-id="a313x.7781069.0.i114" class="" fill="#1296db"></path><path d="M784.384 303.616 239.616 303.616c-16.384 0-29.184-13.312-29.184-29.184 0-16.384 13.312-29.184 29.184-29.184l544.256 0c16.384 0 29.184 13.312 29.184 29.184C813.568 290.304 800.256 303.616 784.384 303.616z" p-id="53375" data-spm-anchor-id="a313x.7781069.0.i116" class="selected" fill="#1296db"></path><path d="M784.384 761.344 240.64 761.344c-16.384 0-29.184-13.312-29.184-29.184s13.312-29.184 29.184-29.184l543.744 0c16.384 0 29.184 13.312 29.184 29.184S800.256 761.344 784.384 761.344z" p-id="53376" data-spm-anchor-id="a313x.7781069.0.i118" class="selected" fill="#1296db"></path><path d="M512.512 775.68c-19.968 0-36.864 16.384-36.864 36.864 0 20.48 16.384 36.864 36.864 36.864 20.48 0 36.864-16.384 36.864-36.864C548.864 792.064 532.48 775.68 512.512 775.68L512.512 775.68z" p-id="53377" data-spm-anchor-id="a313x.7781069.0.i119" class="" fill="#1296db"></path><path d="M399.36 528.896 318.976 528.896c-16.384 0-29.184-13.312-29.184-29.184s13.312-29.184 29.184-29.184L399.36 470.528c16.384 0 29.184 13.312 29.184 29.184S415.744 528.896 399.36 528.896z" p-id="53378" data-spm-anchor-id="a313x.7781069.0.i124" class="" fill="#1296db"></path><path d="M424.448 614.4c-12.8 0-24.576-8.192-28.16-20.992l-25.088-86.016c-4.608-15.36 4.608-31.744 19.968-36.352 15.36-4.608 31.744 4.608 36.352 19.968l25.088 86.016c4.608 15.36-4.608 31.744-19.968 36.352C429.568 614.4 427.008 614.4 424.448 614.4z" p-id="53379" data-spm-anchor-id="a313x.7781069.0.i126" class="" fill="#1296db"></path><path d="M424.448 614.4c-2.048 0-4.096 0-6.144-0.512-15.872-3.584-25.6-18.944-22.528-34.816l51.2-230.912c3.584-15.872 18.944-25.6 34.816-22.528 15.872 3.584 25.6 18.944 22.528 34.816l-51.2 230.912C450.048 605.184 437.76 614.4 424.448 614.4z" p-id="53380" data-spm-anchor-id="a313x.7781069.0.i125" class="" fill="#1296db"></path><path d="M533.504 673.792c-13.824 0-26.112-9.728-28.672-23.552L446.464 359.936c-3.072-15.872 7.168-31.232 23.04-34.304 15.872-3.072 31.232 7.168 34.304 23.04l57.856 290.304c3.072 15.872-7.168 31.232-23.04 34.304C537.088 673.792 535.04 673.792 533.504 673.792z" p-id="53381" data-spm-anchor-id="a313x.7781069.0.i120" class="" fill="#1296db"></path><path d="M533.504 673.792c-2.048 0-4.096 0-6.144-0.512-15.872-3.072-26.112-18.944-22.528-34.816l47.616-229.888c3.072-15.872 18.944-26.112 34.816-22.528 15.872 3.072 26.112 18.944 22.528 34.816l-47.616 229.888C559.104 664.064 546.816 673.792 533.504 673.792z" p-id="53382" data-spm-anchor-id="a313x.7781069.0.i123" class="" fill="#1296db"></path><path d="M613.888 536.576c-11.776 0-23.04-7.68-27.648-19.456l-33.28-92.16c-5.632-15.36 2.56-32.256 17.408-37.376 15.36-5.632 32.256 2.56 37.376 17.408l33.28 92.16c5.632 15.36-2.56 32.256-17.408 37.376C620.544 535.552 617.472 536.576 613.888 536.576z" p-id="53383" data-spm-anchor-id="a313x.7781069.0.i121" class="selected" fill="#1296db"></path><path d="M688.64 536.576l-74.752 0c-16.384 0-29.184-13.312-29.184-29.184s13.312-29.184 29.184-29.184l74.752 0c16.384 0 29.184 13.312 29.184 29.184S705.024 536.576 688.64 536.576z" p-id="53384" data-spm-anchor-id="a313x.7781069.0.i122" class="" fill="#1296db"></path></svg>