<?xml version="1.0" standalone="no"?><!DOCTYPE svg PUBLIC "-//W3C//DTD SVG 1.1//EN" "http://www.w3.org/Graphics/SVG/1.1/DTD/svg11.dtd"><svg t="1533280395284" class="icon" style="" viewBox="0 0 1024 1024" version="1.1" xmlns="http://www.w3.org/2000/svg" p-id="1780" xmlns:xlink="http://www.w3.org/1999/xlink" width="48" height="48"><defs><style type="text/css"></style></defs><path d="M841.37984 569.2416l-21.602304-11.997184c11.649024-20.975616 21.188608-42.696704 28.356608-64.557056 30.949376-94.43328 16.068608-185.462784-39.804928-243.519488-41.054208-42.655744-101.23264-64.442368-169.299968-61.27616l-1.142784-24.674304c75.341824-3.424256 142.188544 20.959232 188.243968 68.816896 62.324736 64.75776 79.331328 165.076992 45.477888 268.341248-7.651328 23.351296-17.821696 46.522368-30.22848 68.866048zM515.252224 807.776256a200.37632 200.37632 0 0 1-70.152192-20.443136 200.445952 200.445952 0 0 1-54.407168-40.157184L294.66624 647.39328a200.507392 200.507392 0 0 1-38.039552-55.9104c-35.40992-77.545472-17.936384-169.353216 43.487232-228.47488 2.670592-2.70336 70.664192-71.430144 82.0224-82.362368a444.04736 444.04736 0 0 1 22.388736-20.13184l15.89248 18.915328a418.11968 418.11968 0 0 0-21.143552 19.013632C388.128768 309.16608 318.164992 379.891712 317.464576 380.60032c-54.091776 52.064256-69.4272 132.608-38.367232 200.62208a175.992832 175.992832 0 0 0 33.366016 49.041408l96.03072 99.782656a175.69792 175.69792 0 0 0 47.722496 35.217408 175.767552 175.767552 0 0 0 61.534208 17.936384l-2.49856 24.576z" fill="#429DD7" p-id="1781"></path><path d="M809.193472 550.244352l-14.508032-7.786496a326.43072 326.43072 0 0 0 22.597632-52.514816c27.3408-83.431424 14.114816-163.934208-35.373056-215.355392-32.1536-33.415168-76.57472-52.219904-128.458752-54.382592a241.074176 241.074176 0 0 0-9.60512-0.200704V203.53024c3.444736 0 6.88128 0.073728 10.289152 0.217088 56.209408 2.338816 104.493056 22.888448 139.644928 59.416576 53.788672 55.894016 68.42368 142.58176 39.153664 231.907328a341.946368 341.946368 0 0 1-23.740416 55.17312zM505.5488 758.996992a172.855296 172.855296 0 0 1-88.563712-49.250304l-83.910656-87.187456a172.78976 172.78976 0 0 1-32.751616-48.14848c-30.490624-66.760704-15.446016-145.813504 37.449728-196.722688 2.37568-2.404352 61.763584-62.447616 71.667712-71.979008a385.523712 385.523712 0 0 1 16.502784-14.974976l10.719232 12.496896a377.761792 377.761792 0 0 0-15.806464 14.35648c-9.756672 9.383936-70.905856 71.204864-71.520256 71.827456-48.009216 46.20288-61.62432 117.747712-34.029568 178.159616a156.2624 156.2624 0 0 0 29.638656 43.565056L428.8512 698.32704a156.131328 156.131328 0 0 0 80.130048 44.556288l-3.432448 16.113664zM173.174784 928.223232l-67.764224-70.418432 147.18976-141.63968 67.760128 70.41024-147.185664 141.647872z m-32.82944-69.742592l33.497088 34.807808 111.583232-107.388928-33.492992-34.799616-111.587328 107.380736z" fill="#429DD7" p-id="1782"></path><path d="M291.631104 792.317952L245.76 744.6528l42.971136-41.345024c26.775552-25.776128 14.897152-47.013888 14.778368-47.222784l-51.707904-88.858624 147.23072 152.997888-17.539072 17.395712c-2.891776-2.822144-6.242304-4.141056-10.5472-4.141056-13.746176 0-31.51872 13.172736-36.663296 17.780736l-42.651648 41.058304z m-10.932224-46.993408l11.599872 12.054528 25.16992-24.223744c2.453504-2.21184 18.870272-16.510976 38.432768-22.130688l-26.689536-27.72992c-2.813952 11.476992-9.535488 24.51456-23.351296 37.814272l-25.161728 24.215552z" fill="#429DD7" p-id="1783"></path><path d="M599.30624 307.380224c-26.759168-25.133056-41.496576-59.092992-41.496576-95.617024s14.737408-70.475776 41.49248-95.62112l11.280384 11.997184c-23.412736 22.003712-36.302848 51.703808-36.302848 83.623936 0 31.92832 12.890112 61.620224 36.302848 83.615744l-11.276288 12.00128zM442.236928 307.380224l-11.276288-11.997184c23.412736-21.99552 36.302848-51.687424 36.302848-83.615744 0-31.920128-12.890112-61.620224-36.302848-83.623936l11.280384-11.997184c26.755072 25.14944 41.49248 59.101184 41.49248 95.62112s-14.737408 70.483968-41.496576 95.612928z" fill="#ED743B" p-id="1784"></path><path d="M520.769536 347.021312c-34.476032 0-67.375104-13.070336-92.63104-36.810752a136.237056 136.237056 0 0 1-26.50112-34.316288 135.172096 135.172096 0 0 1-16.293888-64.299008c0-37.66272 15.19616-72.695808 42.795008-98.623488 25.268224-23.740416 58.167296-36.810752 92.63104-36.810752 34.46784 0 67.366912 13.070336 92.63104 36.80256a135.86432 135.86432 0 0 1 36.868096 58.990592 134.84032 134.84032 0 0 1 5.926912 39.641088c0 37.670912-15.200256 72.695808-42.799104 98.623488-25.247744 23.73632-58.150912 36.80256-92.626944 36.80256z m0-246.14912c-28.155904 0-55.046144 10.686464-75.71456 30.109696-22.56896 21.209088-35.004416 49.840128-35.004416 80.617472a110.34624 110.34624 0 0 0 13.303808 52.506624 111.259648 111.259648 0 0 0 21.700608 28.09856c20.660224 19.423232 47.550464 30.109696 75.71456 30.109696 28.168192 0 55.058432-10.686464 75.71456-30.101504 22.573056-21.209088 35.008512-49.840128 35.008512-80.617472a110.26432 110.26432 0 0 0-4.837376-32.387072 111.153152 111.153152 0 0 0-30.16704-48.238592c-20.668416-19.410944-47.558656-30.097408-75.718656-30.097408z" fill="#ED743B" p-id="1785"></path><path d="M845.910016 893.546496c-43.23328-40.357888-68.026368-97.378304-68.026368-156.422144 0-59.047936 24.793088-116.068352 68.026368-156.422144l11.24352 12.029952c-39.911424 37.261312-62.799872 89.890816-62.799872 144.392192s22.888448 107.13088 62.799872 144.392192l-11.24352 12.029952zM576.454656 893.554688l-11.24352-12.046336c39.91552-37.25312 62.803968-89.882624 62.803968-144.384s-22.888448-107.13088-62.803968-144.384l11.24352-12.046336c43.23328 40.36608 68.030464 97.3824 68.030464 156.430336 0 59.04384-24.80128 116.064256-68.030464 156.430336z" fill="#429DD7" p-id="1786"></path><path d="M712.101888 949.559296c-55.414784 0-108.253184-20.836352-148.783104-58.6752-26.914816-25.133056-47.16544-56.795136-58.556416-91.578368a217.808896 217.808896 0 0 1-10.780672-67.862528c0-60.186624 25.27232-118.300672 69.341184-159.4368 40.534016-37.838848 93.372416-58.6752 148.779008-58.6752 55.402496 0 108.240896 20.836352 148.779008 58.6752 44.068864 41.136128 69.341184 99.250176 69.341184 159.4368 0 60.19072-25.27232 118.300672-69.341184 159.440896-40.52992 37.838848-93.364224 58.6752-148.779008 58.6752z m0-411.52512c-49.127424 0-95.977472 18.481152-131.923968 52.035584-39.653376 37.019648-61.493248 87.228416-61.493248 141.377536 0 20.566016 3.211264 40.808448 9.555968 60.174336 10.09664 30.834688 28.0576 58.908672 51.93728 81.2032 35.938304 33.554432 82.788352 52.035584 131.923968 52.035584 49.13152 0 95.981568-18.481152 131.923968-52.035584 39.653376-37.019648 61.493248-87.228416 61.493248-141.377536s-21.839872-104.357888-61.493248-141.377536c-35.950592-33.554432-82.80064-52.035584-131.923968-52.035584z" fill="#429DD7" p-id="1787"></path><path d="M505.421824 728.887296h411.529216v16.470016H505.421824z" fill="#429DD7" p-id="1788"></path><path d="M702.947328 525.684736h16.470016V939.08992h-16.470016z" fill="#429DD7" p-id="1789"></path></svg>