<?xml version="1.0" standalone="no"?><!DOCTYPE svg PUBLIC "-//W3C//DTD SVG 1.1//EN" "http://www.w3.org/Graphics/SVG/1.1/DTD/svg11.dtd"><svg t="1533199894623" class="icon" style="" viewBox="0 0 1031 1024" version="1.1" xmlns="http://www.w3.org/2000/svg" p-id="51720" xmlns:xlink="http://www.w3.org/1999/xlink" width="32.21875" height="32"><defs><style type="text/css"></style></defs><path d="M949.631928 0H81.966048C36.723553 0 0 36.723553 0 81.966048v645.943114c0 45.242496 36.723553 81.966048 81.966048 81.966049h313.704329v147.239573h-108.674087c-17.728612 0-32.003598 14.274986-32.003597 32.003597v2.878021c0 17.728612 14.274986 32.003598 32.003597 32.003598h457.375155c17.728612 0 32.003598-14.274986 32.003597-32.003598v-2.878021c0-17.728612-14.274986-32.003598-32.003597-32.003597h-108.558966V809.875211h313.589207c45.242496 0 81.966048-36.723553 81.966049-81.966049V81.966048C1031.482856 36.723553 994.874424 0.115121 949.631928 0zM81.966048 62.165261h867.550759c10.936481 0 19.800787 8.864306 19.800787 19.800787v438.495335H62.165261V81.966048C62.165261 71.029567 71.029567 62.165261 81.966048 62.165261z m491.68117 894.949523H457.835638V809.875211h115.81158v147.239573z m375.869589-209.404835H81.966048c-10.936481 0-19.800787-8.864306-19.800787-19.800787V587.231478h907.152333v140.677684c0 10.936481-8.864306 19.800787-19.800787 19.800787z" fill="#0074FF" p-id="51721"></path><path d="M515.741428 662.86588m-50.653176 0a50.653176 50.653176 0 1 0 101.306352 0 50.653176 50.653176 0 1 0-101.306352 0Z" fill="#FFE10B" p-id="51722"></path></svg>