<?xml version="1.0" standalone="no"?><!DOCTYPE svg PUBLIC "-//W3C//DTD SVG 1.1//EN" "http://www.w3.org/Graphics/SVG/1.1/DTD/svg11.dtd"><svg t="1533280425356" class="icon" style="" viewBox="0 0 1024 1024" version="1.1" xmlns="http://www.w3.org/2000/svg" p-id="3026" xmlns:xlink="http://www.w3.org/1999/xlink" width="48" height="48"><defs><style type="text/css"></style></defs><path d="M306.051282 336.410256s-65.641026 121.435897 86.974359 160.820513-21.333333 82.051282-26.25641 169.025641c-4.923077 86.974359-32.820513 6.564103-54.153846 45.948718-21.333333 39.384615 19.692308 36.102564-49.23077 49.230769s-134.564103 49.230769-134.564102 49.23077l415.179487 4.923077s-36.102564-47.589744 3.282051-82.051282-21.333333-73.846154-21.333333-73.846154-8.205128 65.641026 60.717949 91.897436 124.717949-24.615385 150.974359 22.974359c26.25641 47.589744 14.769231 42.666667 14.76923 42.666666l34.461539 18.051282-39.384616-108.307692 100.102565 91.897436 34.461538-8.205128s-85.333333-36.102564-114.871795-101.74359-72.205128 18.051282-136.205128-11.48718c-65.641026-31.179487-55.794872-91.897436 8.205128-126.358974 65.641026-34.461538-55.794872-65.641026-26.25641-73.846154 31.179487-8.205128 142.769231 4.923077 142.769231-68.923077s73.846154-90.25641 73.846154-90.25641H775.384615s-47.589744 26.25641-54.153846 70.564103c-6.564103 42.666667-62.358974-67.282051-62.358974-67.282052l3.282051 14.769231 14.769231 50.871795-54.153846-16.410256-4.923077 3.282051 47.589743 21.333333s21.333333 21.333333-1.641025 19.692308c-24.615385-1.641026-78.769231 6.564103-119.794872-18.051282s-26.25641 62.358974-26.25641 62.358974-26.25641-50.871795-75.48718-50.871795-132.923077 1.641026-98.461538-75.487179 88.615385-21.333333 88.615384-21.333334v-1.641025s-47.589744-52.512821-60.717948-31.179487c-13.128205 21.333333-39.384615 18.051282-39.384616 18.051282l-1.641025-55.794872-16.410257 52.51282-8.205128 22.974359z" fill="#5E0404" p-id="3027"></path><path d="M307.692308 434.871795s-72.205128 11.487179-113.23077-44.307692c-42.666667-54.153846-72.205128-6.564103-72.205128-6.564103s8.205128-32.820513 37.74359-32.820513 37.74359 19.692308 62.358974 32.820513 18.051282-39.384615 18.051282-39.384615 18.051282 18.051282 9.846154 42.666666 29.538462 27.897436 50.871795 4.923077L307.692308 434.871795z" fill="#5E0404" p-id="3028"></path><path d="M658.871795 1024H320.820513l16.410256-49.230769h305.230769z" fill="#D10D0D" p-id="3029"></path><path d="M484.923077 991.179487c211.692308 0 382.358974-65.641026 382.358974-164.102564H102.564103c0 98.461538 172.307692 164.102564 382.358974 164.102564z" fill="#5E0404" p-id="3030"></path><path d="M81.230769 794.25641h820.512821v49.230769h-820.512821zM246.974359 899.282051l-26.25641 32.820513-26.256411-32.820513 26.256411-32.820513zM352 899.282051l-24.615385 32.820513-26.25641-32.820513 26.25641-32.820513zM458.666667 899.282051l-26.256411 32.820513-26.25641-32.820513 26.25641-32.820513zM563.692308 899.282051l-24.615385 32.820513-26.25641-32.820513 26.25641-32.820513zM670.358974 899.282051l-26.25641 32.820513-24.615385-32.820513 24.615385-32.820513zM775.384615 899.282051l-24.615384 32.820513-26.25641-32.820513 26.25641-32.820513z" fill="#D10D0D" p-id="3031"></path><path d="M475.076923 252.717949c0 26.25641-21.333333 49.230769-47.589744 49.230769h-170.666666c-26.25641 0-47.589744-22.974359-47.589744-49.230769s21.333333-49.230769 47.589744-49.23077h169.025641c27.897436 0 49.230769 22.974359 49.230769 49.23077zM852.512821 129.641026c0 21.333333-18.051282 41.025641-39.384616 41.025641h-139.487179c-21.333333 0-39.384615-19.692308-39.384616-41.025641s18.051282-41.025641 39.384616-41.025641h139.487179c21.333333 0 39.384615 19.692308 39.384616 41.025641z" fill="#FF7C10" p-id="3032"></path><path d="M762.25641 178.871795c0 21.333333-18.051282 41.025641-39.384615 41.025641h-139.48718c-21.333333 0-39.384615-19.692308-39.384615-41.025641s18.051282-41.025641 39.384615-41.025641h137.846154c22.974359 0 41.025641 19.692308 41.025641 41.025641z" fill="#FF7C10" p-id="3033"></path><path d="M770.461538 254.358974c0 26.25641-21.333333 47.589744-47.589743 47.589744h-167.384616c-26.25641 0-47.589744-21.333333-47.589743-47.589744v-3.282051c0-26.25641 21.333333-47.589744 47.589743-47.589744h167.384616c26.25641 0 47.589744 21.333333 47.589743 47.589744v3.282051zM491.487179 318.358974c0 9.846154-6.564103 16.410256-16.410256 16.410257h-82.051282c-9.846154 0-16.410256-6.564103-16.410256-16.410257s6.564103-16.410256 16.410256-16.410256h82.051282c9.846154 0 16.410256 6.564103 16.410256 16.410256z" fill="#FF7C10" p-id="3034"></path><path d="M854.153846 318.358974c0 26.25641-21.333333 49.230769-47.589743 49.23077h-169.025641c-26.25641 0-47.589744-22.974359-47.589744-49.23077s21.333333-49.230769 47.589744-49.230769h169.025641c26.25641 0 47.589744 22.974359 47.589743 49.230769zM471.794872 121.435897c0 26.25641-21.333333 49.230769-47.589744 49.23077h-169.025641c-26.25641 0-47.589744-22.974359-47.589743-49.23077s21.333333-49.230769 47.589743-49.230769h169.025641c26.25641 0 47.589744 22.974359 47.589744 49.230769zM918.153846 187.076923c0 26.25641-21.333333 49.230769-47.589743 49.230769h-170.666667c-26.25641 0-47.589744-22.974359-47.589744-49.230769s21.333333-49.230769 47.589744-49.230769h169.025641c27.897436 0 49.230769 22.974359 49.230769 49.230769z" fill="#FF7C10" p-id="3035"></path><path d="M393.025641 178.871795c0 22.974359-18.051282 41.025641-41.025641 41.025641h-147.692308c-22.974359 0-41.025641-18.051282-41.025641-41.025641s18.051282-41.025641 41.025641-41.025641h147.692308c22.974359 0 41.025641 18.051282 41.025641 41.025641zM184.615385 244.512821c0 6.564103-4.923077 8.205128-11.48718 8.205128H135.384615c-6.564103 0-11.487179-1.641026-11.487179-8.205128 1.641026-6.564103 6.564103-8.205128 11.487179-8.205129h37.74359c6.564103 0 11.487179 1.641026 11.48718 8.205129zM544 64c0 6.564103-4.923077 8.205128-11.487179 8.205128h-37.74359c-6.564103 0-11.487179-1.641026-11.48718-8.205128s4.923077-8.205128 11.48718-8.205128h37.74359c6.564103 0 11.487179 1.641026 11.487179 8.205128zM478.358974 31.179487c0 6.564103-4.923077 8.205128-11.487179 8.205128h-37.74359c-6.564103 0-11.487179-1.641026-11.487179-8.205128s4.923077-8.205128 11.487179-8.205128h37.74359c6.564103 0 11.487179 1.641026 11.487179 8.205128zM950.974359 260.923077c0 4.923077-3.282051 8.205128-8.205128 8.205128h-49.230769c-4.923077 0-8.205128-3.282051-8.205129-8.205128s3.282051-8.205128 8.205129-8.205128h49.230769c4.923077 0 8.205128 3.282051 8.205128 8.205128zM622.769231 96.820513c0 4.923077-3.282051 8.205128-8.205128 8.205128h-49.23077c-4.923077 0-8.205128-3.282051-8.205128-8.205128s3.282051-8.205128 8.205128-8.205128h49.23077c4.923077 0 8.205128 3.282051 8.205128 8.205128z" fill="#FF7C10" p-id="3036"></path><path d="M279.794872 32.820513m-14.769231 0a14.769231 14.769231 0 1 0 29.538462 0 14.769231 14.769231 0 1 0-29.538462 0Z" fill="#FF7C10" p-id="3037"></path><path d="M353.641026 52.512821m-6.564103 0a6.564103 6.564103 0 1 0 13.128205 0 6.564103 6.564103 0 1 0-13.128205 0Z" fill="#FF7C10" p-id="3038"></path><path d="M440.615385 86.974359m-31.179488 0a31.179487 31.179487 0 1 0 62.358975 0 31.179487 31.179487 0 1 0-62.358975 0Z" fill="#FF7C10" p-id="3039"></path><path d="M727.794872 80.410256m-75.48718 0a75.487179 75.487179 0 1 0 150.974359 0 75.487179 75.487179 0 1 0-150.974359 0Z" fill="#FF7C10" p-id="3040"></path><path d="M859.076923 57.435897m-9.846154 0a9.846154 9.846154 0 1 0 19.692308 0 9.846154 9.846154 0 1 0-19.692308 0Z" fill="#FF7C10" p-id="3041"></path><path d="M649.025641 121.435897m-67.282051 0a67.282051 67.282051 0 1 0 134.564102 0 67.282051 67.282051 0 1 0-134.564102 0Z" fill="#FF7C10" p-id="3042"></path><path d="M137.025641 364.307692m-52.51282 0a52.512821 52.512821 0 1 0 105.025641 0 52.512821 52.512821 0 1 0-105.025641 0Z" fill="#FF7C10" p-id="3043"></path><path d="M245.333333 333.128205m-11.487179 0a11.487179 11.487179 0 1 0 22.974359 0 11.487179 11.487179 0 1 0-22.974359 0Z" fill="#FF7C10" p-id="3044"></path><path d="M110.769231 429.948718m-37.74359 0a37.74359 37.74359 0 1 0 75.48718 0 37.74359 37.74359 0 1 0-75.48718 0Z" fill="#FF7C10" p-id="3045"></path><path d="M151.794872 403.692308m-36.102564 0a36.102564 36.102564 0 1 0 72.205128 0 36.102564 36.102564 0 1 0-72.205128 0Z" fill="#FF7C10" p-id="3046"></path><path d="M182.974359 357.74359m-42.666667 0a42.666667 42.666667 0 1 0 85.333334 0 42.666667 42.666667 0 1 0-85.333334 0Z" fill="#FF7C10" p-id="3047"></path><path d="M145.230769 305.230769m-18.051282 0a18.051282 18.051282 0 1 0 36.102564 0 18.051282 18.051282 0 1 0-36.102564 0Z" fill="#FF7C10" p-id="3048"></path><path d="M393.025641 165.74359m-44.307692 0a44.307692 44.307692 0 1 0 88.615384 0 44.307692 44.307692 0 1 0-88.615384 0Z" fill="#FF7C10" p-id="3049"></path><path d="M355.282051 80.410256c0 44.307692-36.102564 80.410256-80.410256 80.410257S194.461538 124.717949 194.461538 80.410256 230.564103 0 274.871795 0s80.410256 36.102564 80.410256 80.410256z" fill="#FF7C10" p-id="3050"></path><path d="M356.923077 55.794872m-37.74359 0a37.74359 37.74359 0 1 0 75.48718 0 37.74359 37.74359 0 1 0-75.48718 0Z" fill="#FF7C10" p-id="3051"></path><path d="M156.717949 136.205128m-77.128205 0a77.128205 77.128205 0 1 0 154.25641 0 77.128205 77.128205 0 1 0-154.25641 0Z" fill="#FF7C10" p-id="3052"></path><path d="M773.74359 200.205128m-57.435898 0a57.435897 57.435897 0 1 0 114.871795 0 57.435897 57.435897 0 1 0-114.871795 0Z" fill="#FF7C10" p-id="3053"></path><path d="M872.205128 367.589744m-67.282051 0a67.282051 67.282051 0 1 0 134.564102 0 67.282051 67.282051 0 1 0-134.564102 0Z" fill="#FF7C10" p-id="3054"></path><path d="M806.564103 493.948718m-13.128206 0a13.128205 13.128205 0 1 0 26.256411 0 13.128205 13.128205 0 1 0-26.256411 0Z" fill="#FF7C10" p-id="3055"></path><path d="M775.384615 351.179487m-42.666666 0a42.666667 42.666667 0 1 0 85.333333 0 42.666667 42.666667 0 1 0-85.333333 0Z" fill="#FF7C10" p-id="3056"></path><path d="M703.179487 346.25641m-42.666666 0a42.666667 42.666667 0 1 0 85.333333 0 42.666667 42.666667 0 1 0-85.333333 0Z" fill="#FF7C10" p-id="3057"></path><path d="M788.512821 443.076923m-6.564103 0a6.564103 6.564103 0 1 0 13.128205 0 6.564103 6.564103 0 1 0-13.128205 0Z" fill="#FF7C10" p-id="3058"></path><path d="M781.948718 479.179487m-6.564103 0a6.564103 6.564103 0 1 0 13.128206 0 6.564103 6.564103 0 1 0-13.128206 0Z" fill="#FF7C10" p-id="3059"></path><path d="M872.205128 439.794872m-39.384615 0a39.384615 39.384615 0 1 0 78.769231 0 39.384615 39.384615 0 1 0-78.769231 0Z" fill="#FF7C10" p-id="3060"></path><path d="M186.25641 413.538462m-39.384615 0a39.384615 39.384615 0 1 0 78.769231 0 39.384615 39.384615 0 1 0-78.769231 0Z" fill="#FF7C10" p-id="3061"></path><path d="M297.846154 431.589744m-11.48718 0a11.487179 11.487179 0 1 0 22.974359 0 11.487179 11.487179 0 1 0-22.974359 0Z" fill="#FF7C10" p-id="3062"></path><path d="M317.538462 474.25641m-50.871795 0a50.871795 50.871795 0 1 0 101.743589 0 50.871795 50.871795 0 1 0-101.743589 0Z" fill="#FF7C10" p-id="3063"></path><path d="M373.333333 487.384615m-34.461538 0a34.461538 34.461538 0 1 0 68.923077 0 34.461538 34.461538 0 1 0-68.923077 0Z" fill="#FF7C10" p-id="3064"></path><path d="M151.794872 114.871795m-26.25641 0a26.25641 26.25641 0 1 0 52.51282 0 26.25641 26.25641 0 1 0-52.51282 0Z" fill="#FFA912" p-id="3065"></path><path d="M212.512821 114.871795m-11.48718 0a11.487179 11.487179 0 1 0 22.974359 0 11.487179 11.487179 0 1 0-22.974359 0Z" fill="#FFA912" p-id="3066"></path><path d="M256.820513 54.153846m-27.897436 0a27.897436 27.897436 0 1 0 55.794872 0 27.897436 27.897436 0 1 0-55.794872 0Z" fill="#FFA912" p-id="3067"></path><path d="M317.538462 86.974359m-11.48718 0a11.487179 11.487179 0 1 0 22.974359 0 11.487179 11.487179 0 1 0-22.974359 0Z" fill="#FFA912" p-id="3068"></path><path d="M609.641026 206.769231m-24.615385 0a24.615385 24.615385 0 1 0 49.230769 0 24.615385 24.615385 0 1 0-49.230769 0Z" fill="#FFA912" p-id="3069"></path><path d="M627.692308 132.923077m-4.923077 0a4.923077 4.923077 0 1 0 9.846154 0 4.923077 4.923077 0 1 0-9.846154 0Z" fill="#FFA912" p-id="3070"></path><path d="M668.717949 116.512821m-29.538462 0a29.538462 29.538462 0 1 0 59.076923 0 29.538462 29.538462 0 1 0-59.076923 0Z" fill="#FFA912" p-id="3071"></path><path d="M716.307692 65.641026m-26.25641 0a26.25641 26.25641 0 1 0 52.512821 0 26.25641 26.25641 0 1 0-52.512821 0Z" fill="#FFA912" p-id="3072"></path><path d="M757.333333 32.820513m-6.564102 0a6.564103 6.564103 0 1 0 13.128205 0 6.564103 6.564103 0 1 0-13.128205 0Z" fill="#FFA912" p-id="3073"></path><path d="M133.74359 357.74359m-18.051282 0a18.051282 18.051282 0 1 0 36.102564 0 18.051282 18.051282 0 1 0-36.102564 0Z" fill="#FFA912" p-id="3074"></path><path d="M189.538462 344.615385m-8.205129 0a8.205128 8.205128 0 1 0 16.410257 0 8.205128 8.205128 0 1 0-16.410257 0Z" fill="#FFA912" p-id="3075"></path><path d="M312.615385 454.564103m-19.692308 0a19.692308 19.692308 0 1 0 39.384615 0 19.692308 19.692308 0 1 0-39.384615 0Z" fill="#FFA912" p-id="3076"></path><path d="M168.205128 160.820513m-13.128205 0a13.128205 13.128205 0 1 0 26.25641 0 13.128205 13.128205 0 1 0-26.25641 0Z" fill="#FFA912" p-id="3077"></path><path d="M235.487179 182.153846m-14.76923 0a14.769231 14.769231 0 1 0 29.538461 0 14.769231 14.769231 0 1 0-29.538461 0Z" fill="#FFA912" p-id="3078"></path><path d="M296.205128 236.307692m-31.179487 0a31.179487 31.179487 0 1 0 62.358974 0 31.179487 31.179487 0 1 0-62.358974 0Z" fill="#FFA912" p-id="3079"></path><path d="M680.205128 283.897436m-29.538461 0a29.538462 29.538462 0 1 0 59.076923 0 29.538462 29.538462 0 1 0-59.076923 0Z" fill="#FFA912" p-id="3080"></path><path d="M742.564103 328.205128m-6.564103 0a6.564103 6.564103 0 1 0 13.128205 0 6.564103 6.564103 0 1 0-13.128205 0Z" fill="#FFA912" p-id="3081"></path><path d="M647.384615 329.846154m-16.410256 0a16.410256 16.410256 0 1 0 32.820513 0 16.410256 16.410256 0 1 0-32.820513 0Z" fill="#FFA912" p-id="3082"></path><path d="M617.846154 274.051282m-14.769231 0a14.769231 14.769231 0 1 0 29.538462 0 14.769231 14.769231 0 1 0-29.538462 0Z" fill="#FFA912" p-id="3083"></path><path d="M547.282051 244.512821m-18.051282 0a18.051282 18.051282 0 1 0 36.102564 0 18.051282 18.051282 0 1 0-36.102564 0Z" fill="#FFA912" p-id="3084"></path><path d="M466.871795 505.435897s52.512821 27.897436-14.769231 73.846154c-65.641026 45.948718-45.948718 80.410256-55.794872 111.589744 0 0 27.897436-62.358974 82.051282-85.333333 54.153846-24.615385 39.384615-54.153846 39.384616-54.153847s-8.205128 14.769231-18.051282 18.051282c0 0 22.974359-22.974359 1.641025-42.666666s-34.461538-21.333333-34.461538-21.333334zM537.435897 530.051282s-22.974359-106.666667 3.282052-100.102564c24.615385 6.564103 44.307692 22.974359 55.794872 13.128205 0 0-8.205128 21.333333-26.256411 13.128205s-19.692308-13.128205-19.692307 1.641026 0 6.564103-11.48718 13.128205c-11.487179 9.846154-1.641026 59.076923-1.641026 59.076923z" fill="#821717" p-id="3085"></path></svg>