<?xml version="1.0" standalone="no"?><!DOCTYPE svg PUBLIC "-//W3C//DTD SVG 1.1//EN" "http://www.w3.org/Graphics/SVG/1.1/DTD/svg11.dtd"><svg t="1533373890160" class="icon" style="" viewBox="0 0 1024 1024" version="1.1" xmlns="http://www.w3.org/2000/svg" p-id="1495" xmlns:xlink="http://www.w3.org/1999/xlink" width="48" height="48"><defs><style type="text/css"></style></defs><path d="M858.570723 481.47866c-2.889594-39.009524-36.481129-71.156261-75.490652-71.87866l-89.216226-1.444797 83.798236-31.06314c36.481129-13.725573 57.791887-55.263492 47.678307-92.828218-0.361199-1.805996-11.558377-41.537919-39.009524-74.768254-27.451146-33.230335-64.654674-51.2903-66.099471-52.012699-35.036332-16.976367-79.825044-3.973192-100.052204 29.618343L573.58448 263.675485l14.809171-88.132628c6.501587-38.287125-18.782363-77.657848-56.708289-87.410229-1.805996-0.361199-41.899118-10.835979-84.159436-3.250794-42.260317 7.223986-76.93545 30.340741-78.380247 31.06314-32.507937 21.671958-43.343915 67.183069-24.200353 101.497001l43.343916 78.019048-68.627866-57.069489c-29.979541-24.922751-76.93545-22.394356-104.025397 5.41799-1.083598 1.083598-30.340741 31.063139-45.149912 71.156261-14.809171 40.454321-12.280776 81.631041-11.919577 83.437037 2.889594 39.009524 36.481129 71.156261 75.490653 71.878659l89.216226 1.444798-83.798237 31.063139c-36.481129 13.725573-57.791887 55.263492-47.678307 92.828219 0.361199 1.805996 11.558377 41.537919 39.009524 74.768254 27.451146 33.230335 64.654674 51.2903 66.099471 52.373897 10.47478 5.05679 21.671958 7.585185 32.869136 7.585186 13.364374 0 26.728748-3.611993 38.648324-9.752381-59.597884 80.547443-155.315697 159.650088-299.795414 199.020811l9.391182 35.036331c121.362963-32.869136 225.38836-98.246208 300.517813-188.546031 19.143563-22.755556 36.119929-47.678307 51.290299-72.962258l-2.167195 11.919577c-6.501587 38.287125 18.782363 77.657848 56.708289 87.410229 1.083598 0.361199 23.477954 6.140388 52.373898 6.140388 10.11358 0 20.949559-0.722399 32.146737-2.528395 42.260317-7.223986 76.93545-30.340741 78.380247-31.063139 32.507937-21.671958 43.343915-67.183069 24.200353-101.497002l-43.343916-78.019048 68.627866 57.069489c14.086772 11.558377 31.424339 17.337566 49.123104 17.337566 20.22716 0 40.454321-7.585185 55.263492-22.394356 1.083598-1.083598 30.340741-31.063139 45.149912-71.156261 15.17037-41.899118 12.280776-83.075838 12.280776-84.881834z m-413.573192 17.337566c-29.979541-36.119929-24.922751-89.938624 11.197178-120.279365 15.17037-12.641975 34.675132-19.504762 54.541093-19.504762 25.64515 0 49.484303 11.197178 65.738272 30.70194 14.447972 17.698765 21.310758 39.731922 19.143563 62.487478-2.167196 22.755556-13.003175 43.343915-30.340741 57.791887-15.17037 12.641975-34.675132 19.865961-54.541094 19.865961-25.64515 0-49.484303-11.558377-65.738271-31.063139zM650.519929 205.883598c10.47478-17.337566 34.675132-24.561552 53.096297-15.892769 0.361199 0 31.785538 15.892769 54.179894 42.982716 22.394356 27.089947 32.146737 61.042681 32.146737 61.042681 5.417989 19.504762-6.140388 42.260317-25.28395 49.484303l-142.673722 53.096296c-4.695591-10.47478-10.47478-20.22716-18.059965-29.257142-9.391182-11.558377-20.58836-20.58836-33.230335-27.812346l79.825044-133.643739z m-260.78589-59.959083c0.361199-0.361199 29.257143-19.504762 64.293474-25.64515 34.675132-5.779189 68.627866 2.528395 68.989065 2.889594 19.865961 5.05679 33.591534 26.367549 29.979542 46.594709l-26.367549 154.593298c-5.417989-0.722399-10.835979-1.083598-16.253968-1.083597-20.22716 0-39.731922 5.05679-57.430688 14.447971l-76.57425-137.616931c-9.391182-18.059965-3.611993-42.621517 13.364374-54.179894z m-195.047619 249.949912c0-0.361199-2.167196-35.397531 10.11358-68.266667 12.280776-32.869136 36.842328-58.153086 36.842328-58.514286 14.447972-14.447972 39.731922-15.892769 55.263492-2.889594l120.640564 100.052205c-16.976367 20.22716-26.367549 44.788713-28.173544 70.072663l-154.593299-2.528395c-20.22716 0-38.648325-17.698765-40.093121-37.925926zM313.520988 689.890653c-0.361199 0-31.785538-15.53157-54.179895-42.982716-22.394356-27.089947-32.146737-61.042681-32.146737-61.042681-5.417989-19.504762 6.140388-42.260317 25.283951-49.484304l143.39612-53.096296c4.695591 13.725573 11.919577 26.728748 21.671957 38.648325 7.585185 9.391182 16.615168 17.337566 26.367549 23.477954l-76.93545 128.225749c-10.835979 17.698765-35.397531 24.922751-53.457495 16.253969z m313.882187 44.066313c-0.361199 0.361199-29.257143 19.504762-64.293475 25.64515-34.313933 5.779189-68.627866-2.528395-68.989065-2.889594-19.865961-5.05679-33.591534-26.367549-29.979542-46.594709l24.922752-146.285714c7.223986 1.444797 14.447972 1.805996 21.671957 1.805996 20.22716 0 40.454321-5.05679 58.153087-14.809171l71.51746 128.948148c9.752381 18.059965 3.973192 42.621517-13.003174 54.179894z m185.295238-181.683245c-12.280776 32.869136-36.842328 58.153086-36.842328 58.514286-14.447972 14.447972-39.731922 15.892769-55.263492 2.889594l-114.138977-94.273015c14.086772-18.059965 23.116755-40.093122 25.28395-63.571076 0.361199-3.973192 0.722399-8.307584 0.361199-12.280776l150.258907 2.528395c20.22716 0.361199 38.648325 17.698765 40.093122 37.925926 0 0.361199 2.167196 35.397531-9.752381 68.266666z" fill="#5282C3" p-id="1496"></path></svg>