<?xml version="1.0" standalone="no"?><!DOCTYPE svg PUBLIC "-//W3C//DTD SVG 1.1//EN" "http://www.w3.org/Graphics/SVG/1.1/DTD/svg11.dtd"><svg t="1533293978175" class="icon" style="" viewBox="0 0 1621 1024" version="1.1" xmlns="http://www.w3.org/2000/svg" p-id="10134" xmlns:xlink="http://www.w3.org/1999/xlink" width="50.65625" height="32"><defs><style type="text/css"></style></defs><path d="M1373.051 850.88l0-738.881c0-27.651-20.606-49.999-46.066-49.999l-1025.171 0c-25.455 0-46.066 22.348-46.066 49.999l0 738.881-151.082 0 0 61.123c0 27.647 20.64 49.997 46.066 49.997l1332.364 0c25.45 0 46.091-22.348 46.091-49.997l0-61.123-156.136 0zM911.28 871.869l-188.711 0 0-32.449 188.711 0 0 32.449zM1278.267 790.137l-927.706 0 0-625.057 927.706 0 0 625.057zM1278.267 790.137z" p-id="10135" fill="#8a8a8a"></path></svg>