<?xml version="1.0" standalone="no"?><!DOCTYPE svg PUBLIC "-//W3C//DTD SVG 1.1//EN" "http://www.w3.org/Graphics/SVG/1.1/DTD/svg11.dtd"><svg t="1533261558866" class="icon" style="" viewBox="0 0 1618 1024" version="1.1" xmlns="http://www.w3.org/2000/svg" p-id="20564" xmlns:xlink="http://www.w3.org/1999/xlink" width="75.84375" height="48"><defs><style type="text/css"></style></defs><path d="M322.266505 701.712088m-297.177071 0a297.177071 297.177071 0 1 0 594.354142 0 297.177071 297.177071 0 1 0-594.354142 0Z" fill="#7E9CFC" p-id="20565"></path><path d="M322.266505 1024C144.585358 1024 0 879.43605 0 701.733495s144.56395-322.287912 322.266505-322.287912 322.287912 144.585358 322.287912 322.287912-144.585358 322.266505-322.287912 322.266505z m0-594.354141a272.087636 272.087636 0 1 0 272.087636 272.087636 272.38734 272.38734 0 0 0-272.087636-272.087636z" fill="#6628FF" p-id="20566"></path><path d="M1296.130451 701.712088m-297.177071 0a297.177071 297.177071 0 1 0 594.354142 0 297.177071 297.177071 0 1 0-594.354142 0Z" fill="#7E9CFC" p-id="20567"></path><path d="M1296.130451 1024c-177.681147 0-322.287912-144.56395-322.287912-322.266505s144.585358-322.287912 322.287912-322.287912S1618.396956 524.03094 1618.396956 701.733495s-144.56395 322.266505-322.266505 322.266505z m0-594.354141a272.087636 272.087636 0 1 0 272.087637 272.087636 272.38734 272.38734 0 0 0-272.087637-272.087636zM435.08333 64.316294l46.312698-19.315868 270.916653 649.555179-46.312698 19.315867zM1060.84422 222.570255l42.187498 27.165949L798.152277 723.183677l-42.187499-27.165949z" fill="#6628FF" p-id="20568"></path><path d="M508.938746 242.13873V191.959861h609.103818v50.178869z" fill="#6628FF" p-id="20569"></path><path d="M349.089936 671.035331L552.73822 211.954342l-45.297989-20.08011L292.574487 676.258728l-3.596438 8.070578a29.970314 29.970314 0 0 0 27.40143 42.129698h349.539491V676.258728H352.493707a3.724882 3.724882 0 0 1-3.403771-5.223397z" fill="#6628FF" p-id="20570"></path><path d="M758.762721 701.305348m-112.923862 0a112.923862 112.923862 0 1 0 225.847724 0 112.923862 112.923862 0 1 0-225.847724 0Z" fill="#6628FF" p-id="20571"></path><path d="M758.762721 701.305348m-47.674207 0a47.674207 47.674207 0 1 0 95.348414 0 47.674207 47.674207 0 1 0-95.348414 0Z" fill="#FF5F46" p-id="20572"></path><path d="M487.467157 7.299912c-48.594723-18.817076-102.755362 0.385333-109.862608 38.918594-7.085839 38.533261 36.777857 75.717858 88.883388 75.375339l104.039805-0.663628 118.147259-0.770665c18.624409-0.128444 23.355438-25.902914 5.972655-32.624828l-110.162311-42.664882zM1322.504327 679.148723L1071.417318 78.201112a10.361166 10.361166 0 0 1 9.569093-14.364343h204.74006V13.74353H1034.939165a29.84187 29.84187 0 0 0-27.572689 41.316218l3.66066 8.777021 265.151649 634.599991a25.089434 25.089434 0 0 0 46.325542-19.26663z" fill="#6628FF" p-id="20573"></path><path d="M1265.860434 237.086591h-32.817494a25.110842 25.110842 0 0 1-25.110841-25.110842 25.110842 25.110842 0 0 1 25.110841-25.089434h33.4169c36.26408 0 65.61358-29.713426 63.023289-65.891876a61.546181 61.546181 0 0 0-61.310699-57.072041h-59.940628a0.214074 0.214074 0 0 1-0.235481-0.214073V13.979011a0.235481 0.235481 0 0 1 0.235481-0.235481h59.940628a111.789271 111.789271 0 0 1 111.46816 105.174394c3.853326 64.928545-48.744575 118.168667-113.780156 118.168667z" fill="#6628FF" p-id="20574"></path></svg>