<?xml version="1.0" standalone="no"?><!DOCTYPE svg PUBLIC "-//W3C//DTD SVG 1.1//EN" "http://www.w3.org/Graphics/SVG/1.1/DTD/svg11.dtd"><svg t="1533261389996" class="icon" style="" viewBox="0 0 1024 1024" version="1.1" xmlns="http://www.w3.org/2000/svg" p-id="19360" xmlns:xlink="http://www.w3.org/1999/xlink" width="48" height="48"><defs><style type="text/css"></style></defs><path d="M726.1 607.8m-106.5 0a106.5 106.5 0 1 0 213 0 106.5 106.5 0 1 0-213 0Z" fill="#F1F2F2" p-id="19361"></path><path d="M94.812191 654.912357a106.494675 106.494675 0 1 0 212.957427-3.687442 106.494675 106.494675 0 1 0-212.957427 3.687442Z" fill="#F1F2F2" p-id="19362"></path><path d="M245.4 823.5c-55.1 0-107.1-21-146.9-59.4-40.7-39.3-63.6-92-64.6-148.5s20.1-110 59.4-150.7 92-63.6 148.5-64.6 110 20.1 150.7 59.4 63.6 92 64.6 148.5-20.1 110-59.4 150.7-92 63.6-148.5 64.6c-1.3-0.1-2.6 0-3.8 0z m-3.3-407.3l0.3 15.9c-48 0.8-92.8 20.3-126.2 54.9-33.4 34.5-51.3 80-50.4 128 0.8 48 20.3 92.8 54.9 126.2 34.5 33.4 80 51.3 128 50.4 99.1-1.7 178.4-83.8 176.6-182.9-1.7-99.1-83.8-178.3-182.9-176.6l-0.3-15.9z" fill="#00D8FF" p-id="19363"></path><path d="M709.3 270.8l-418.8 79c-5.8 1.1-9.6 6.7-8.5 12.5 1 5 5.4 8.7 10.5 8.7h254.9l-65.6 130h47l206.1-192.1c4.1-3.8 4.5-10.2 1-14.6l-16.3-19.9c-2.5-2.9-6.5-4.3-10.3-3.6z" fill="#80F688" p-id="19364"></path><path d="M239.9 308.3m-38.6 0a38.6 38.6 0 1 0 77.2 0 38.6 38.6 0 1 0-77.2 0Z" fill="#00A5FF" p-id="19365"></path><path d="M745.3 196.6l-151.7 29.5c-12 2.3-19.8 13.9-17.5 25.9s13.9 19.8 25.9 17.5L753.7 240c12-2.3 19.8-13.9 17.5-25.9-2.4-12-14-19.9-25.9-17.5z" fill="#00A5FF" p-id="19366"></path><path d="M783.3 823.5c-55.1 0-107.1-21-146.9-59.4-40.7-39.3-63.6-92-64.6-148.5s20.1-110 59.4-150.7c39.3-40.7 92-63.6 148.5-64.6h3.8c55.1 0 107.1 21 146.9 59.4 40.7 39.3 63.6 92 64.6 148.5s-20.1 110-59.4 150.7c-39.3 40.7-92 63.6-148.5 64.6-1.3-0.1-2.5 0-3.8 0z m0.2-391.4h-3.2c-48 0.8-92.8 20.3-126.2 54.9-33.4 34.5-51.3 80-50.4 128 0.8 48 20.3 92.8 54.9 126.2 34.5 33.4 80.1 51.3 128 50.4 99.1-1.7 178.4-83.8 176.6-182.9-0.8-48-20.3-92.8-54.9-126.2-33.8-32.6-78-50.4-124.8-50.4z" fill="#00D8FF" p-id="19367"></path></svg>