<?xml version="1.0" standalone="no"?><!DOCTYPE svg PUBLIC "-//W3C//DTD SVG 1.1//EN" "http://www.w3.org/Graphics/SVG/1.1/DTD/svg11.dtd"><svg t="1533214796628" class="icon" style="" viewBox="0 0 1024 1024" version="1.1" xmlns="http://www.w3.org/2000/svg" p-id="61810" xmlns:xlink="http://www.w3.org/1999/xlink" width="64" height="64"><defs><style type="text/css"></style></defs><path d="M534.5 169.6H180.3c-7.7 0-14.2 5.5-15.5 13.1L49.4 855.2c-1.6 9.6 5.8 18.4 15.5 18.4h310.9c7.3 0 13.7-5 15.3-12.2l66.6-286.1c1.7-7.1 8-12.2 15.3-12.2h78.8c7.3 0 13.7 5 15.3 12.2l66.6 286.1c1.7 7.1 8 12.2 15.3 12.2h311c9.8 0 17.2-8.8 15.5-18.4L860.2 182.7c-1.3-7.6-7.8-13.1-15.5-13.1H534.5z" fill="#64C8FF" p-id="61811"></path><path d="M513.8 190.1h326.8L954.3 853H653l-65.7-282.3c-3.8-16.5-18.4-28.1-35.3-28.1h-78.8c-17 0-31.5 11.5-35.3 28.1L372 853H70.7l113.7-662.9H513.8m0-20.5H180.3c-7.7 0-14.2 5.5-15.5 13.1L49.4 855.2c-1.6 9.6 5.8 18.4 15.5 18.4h310.9c7.3 0 13.7-5 15.3-12.2l66.6-286.1c1.7-7.1 8-12.2 15.3-12.2h78.8c7.3 0 13.7 5 15.3 12.2l66.6 286.1c1.7 7.1 8 12.2 15.3 12.2h311c9.8 0 17.2-8.8 15.5-18.4L860.2 182.7c-1.3-7.6-7.8-13.1-15.5-13.1H513.8z" fill="" p-id="61812"></path><path d="M61.8 783.3l-12.3 71.8c-1.6 9.6 5.8 18.4 15.5 18.4h310.9c7.3 0 13.7-5 15.3-12.2l18.2-78.1H61.8z" fill="#FFF188" p-id="61813"></path><path d="M383.4 803.9L372 853H70.7l8.4-49.1h304.3m25.9-20.6H61.8l-12.3 71.8c-1.6 9.6 5.8 18.4 15.5 18.4h310.9c7.3 0 13.7-5 15.3-12.2l18.1-78z" fill="" p-id="61814"></path><path d="M963.2 783.3l12.3 71.8c1.6 9.6-5.8 18.4-15.5 18.4H649.1c-7.3 0-13.7-5-15.3-12.2l-18.2-78.1h347.6z" fill="#FFF188" p-id="61815"></path><path d="M945.9 803.9l8.4 49.1H653l-11.4-49.1h304.3m17.3-20.6H615.6l18.2 78.1c1.7 7.1 8 12.2 15.3 12.2H960c9.8 0 17.2-8.8 15.5-18.4l-12.3-71.9z" fill="" p-id="61816"></path><path d="M876.7 265.7l-14.2-83c-1.3-7.6-7.8-13.1-15.5-13.1H182.5c-7.7 0-14.2 5.5-15.5 13.1l-14.2 83h723.9z" fill="#A4E7FF" p-id="61817"></path><path d="M227.2 180.5c-5.9 0-10.7 4.8-10.7 10.7v25.3c0 5.9 4.8 10.7 10.7 10.7 5.9 0 10.7-4.8 10.7-10.7v-25.3c0-5.9-4.8-10.7-10.7-10.7zM299.1 180.5c-5.9 0-10.7 4.8-10.7 10.7v25.3c0 5.9 4.8 10.7 10.7 10.7s10.7-4.8 10.7-10.7v-25.3c0-5.9-4.8-10.7-10.7-10.7zM371 180.5c-5.9 0-10.7 4.8-10.7 10.7v25.3c0 5.9 4.8 10.7 10.7 10.7 5.9 0 10.7-4.8 10.7-10.7v-25.3c0-5.9-4.8-10.7-10.7-10.7zM442.8 180.5c-5.9 0-10.7 4.8-10.7 10.7v25.3c0 5.9 4.8 10.7 10.7 10.7 5.9 0 10.7-4.8 10.7-10.7v-25.3c0-5.9-4.7-10.7-10.7-10.7zM514.7 180.5c-5.9 0-10.7 4.8-10.7 10.7v25.3c0 5.9 4.8 10.7 10.7 10.7 5.9 0 10.7-4.8 10.7-10.7v-25.3c0-5.9-4.8-10.7-10.7-10.7zM586.6 180.5c-5.9 0-10.7 4.8-10.7 10.7v25.3c0 5.9 4.8 10.7 10.7 10.7 5.9 0 10.7-4.8 10.7-10.7v-25.3c0-5.9-4.8-10.7-10.7-10.7zM658.5 180.5c-5.9 0-10.7 4.8-10.7 10.7v25.3c0 5.9 4.8 10.7 10.7 10.7 5.9 0 10.7-4.8 10.7-10.7v-25.3c0-5.9-4.8-10.7-10.7-10.7zM730.4 180.5c-5.9 0-10.7 4.8-10.7 10.7v25.3c0 5.9 4.8 10.7 10.7 10.7 5.9 0 10.7-4.8 10.7-10.7v-25.3c0-5.9-4.8-10.7-10.7-10.7zM802.2 180.5c-5.9 0-10.7 4.8-10.7 10.7v25.3c0 5.9 4.8 10.7 10.7 10.7 5.9 0 10.7-4.8 10.7-10.7v-25.3c0-5.9-4.8-10.7-10.7-10.7z" fill="" p-id="61818"></path><path d="M516.1 190.1h326.8l9.4 55H177.2l9.4-55h329.5m0-20.5H182.5c-7.7 0-14.2 5.5-15.5 13.1l-14.2 83h723.9l-14.2-83c-1.3-7.6-7.8-13.1-15.5-13.1H516.1z" fill="" p-id="61819"></path></svg>