<?xml version="1.0" standalone="no"?><!DOCTYPE svg PUBLIC "-//W3C//DTD SVG 1.1//EN" "http://www.w3.org/Graphics/SVG/1.1/DTD/svg11.dtd"><svg t="1533193079953" class="icon" style="" viewBox="0 0 1024 1024" version="1.1" xmlns="http://www.w3.org/2000/svg" p-id="20217" xmlns:xlink="http://www.w3.org/1999/xlink" width="32" height="32"><defs><style type="text/css"></style></defs><path d="M459.51005 749.756873c-57.870338 0-104.947932 47.08079-104.947932 104.947932s47.08079 104.947932 104.947932 104.947931 104.947932-47.08079 104.947931-104.947931-47.077594-104.947932-104.947931-104.947932z m0 165.139221c-33.190247 0-60.19129-27.001043-60.19129-60.191289s27.001043-60.19129 60.19129-60.19129 60.19129 27.001043 60.191289 60.19129-27.001043 60.19129-60.191289 60.191289zM795.443814 749.756873c-57.870338 0-104.947932 47.08079-104.947932 104.947932s47.08079 104.947932 104.947932 104.947931 104.947932-47.08079 104.947931-104.947931-47.077594-104.947932-104.947931-104.947932z m0 165.139221c-33.190247 0-60.19129-27.001043-60.19129-60.191289s27.001043-60.19129 60.19129-60.19129 60.19129 27.001043 60.191289 60.19129-27.001043 60.19129-60.191289 60.191289zM1001.877431 330.112204a22.371927 22.371927 0 0 0-17.09384-7.93791h-154.8388a22.250445 22.250445 0 0 0-8.647623-8.455809l-330.92102-180.113515a22.375124 22.375124 0 0 0-30.111629 8.52614l-103.215211 180.043184H266.292429L220.311373 85.820861l-0.015984-0.067135a22.263232 22.263232 0 0 0-0.460354-1.860597c-0.031969-0.105498-0.05115-0.217389-0.08312-0.322888a21.72935 21.72935 0 0 0-0.642577-1.793462c-0.04156-0.102301-0.073529-0.214193-0.115089-0.316494a23.295832 23.295832 0 0 0-0.719303-1.508938c-0.083119-0.163042-0.150254-0.332478-0.236571-0.492323-0.210996-0.390022-0.45396-0.760863-0.687334-1.1349-0.150254-0.242965-0.284524-0.498717-0.444369-0.732091-0.191814-0.284524-0.409204-0.54667-0.613806-0.821604-0.22698-0.303706-0.437976-0.617002-0.677743-0.907921a22.365533 22.365533 0 0 0-11.770997-7.435996c-0.313296-0.079923-0.623396-0.17583-0.943086-0.242965-0.207799-0.04156-0.418794-0.063938-0.62979-0.099104a20.578465 20.578465 0 0 0-1.601649-0.242964c-0.137467-0.012788-0.278131-0.012788-0.4124-0.025576a22.052237 22.052237 0 0 0-1.841416-0.09271l-0.070332-0.003197H47.211864a22.378321 22.378321 0 1 0 0 44.756642h132.690655l63.611976 326.995224c0.156648 0.808816 0.434779 1.560089 0.67135 2.327345l47.221454 263.54629a22.378321 22.378321 0 0 0 22.026662 18.433342h610.867422a22.375124 22.375124 0 0 0 22.061828-18.637944l60.482208-356.844707a22.375124 22.375124 0 0 0-4.967988-18.183984z m-319.639149 36.818732v312.088064h-46.070569v-312.088064h46.070569z m44.756642 0h46.070569v312.088064h-46.070569v-312.088064z m-238.789473-183.553383l254.997771 138.796741H408.634535l79.570916-138.796741z m-211.96426 183.553383h315.16988v312.088064H332.158222l-55.917031-312.088064z m629.156905 312.084867h-87.572764v-312.088064h140.468721l-52.895957 312.088064z" fill="#e6e6e6" p-id="20218"></path></svg>