<?xml version="1.0" standalone="no"?><!DOCTYPE svg PUBLIC "-//W3C//DTD SVG 1.1//EN" "http://www.w3.org/Graphics/SVG/1.1/DTD/svg11.dtd"><svg t="1533353098434" class="icon" style="" viewBox="0 0 1024 1024" version="1.1" xmlns="http://www.w3.org/2000/svg" p-id="7560" xmlns:xlink="http://www.w3.org/1999/xlink" width="48" height="48"><defs><style type="text/css"></style></defs><path d="M895.5 600a44 44 0 0 1 44 44v186a44 44 0 0 1-44 44h-767a44 44 0 0 1-44-44V644a44 44 0 0 1 44-44h767m0-20h-767a64 64 0 0 0-64 64v186a64 64 0 0 0 64 64h767a64 64 0 0 0 64-64V644a64 64 0 0 0-64-64z" fill="#26263D" p-id="7561"></path><path d="M241.5 150a9.2 9.2 0 0 1 9.21 8.82L268.63 580h-54.26l17.92-421.17a9.2 9.2 0 0 1 9.21-8.83m0-20a29.22 29.22 0 0 0-29.19 28L193.5 600h96l-18.81-442a29.22 29.22 0 0 0-29.19-28zM510 150a9.2 9.2 0 0 1 9.21 8.82L537.13 580h-54.26l17.92-421.17A9.2 9.2 0 0 1 510 150m0-20a29.22 29.22 0 0 0-29.19 28L462 600h96l-18.81-442A29.22 29.22 0 0 0 510 130zM778.5 150a9.2 9.2 0 0 1 9.21 8.82L805.63 580h-54.26l17.92-421.17a9.2 9.2 0 0 1 9.21-8.83m0-20a29.22 29.22 0 0 0-29.19 28L730.5 600h96l-18.81-442a29.22 29.22 0 0 0-29.19-28z" fill="#26263D" p-id="7562"></path><path d="M852 600v274H172V600h680m20-20H152v314h720V580z" fill="#26263D" p-id="7563"></path><path d="M492.5 684a12 12 0 0 1 12 12v82a12 12 0 0 1-12 12h-248a12 12 0 0 1-12-12v-82a12 12 0 0 1 12-12h248m0-20h-248a32 32 0 0 0-32 32v82a32 32 0 0 0 32 32h248a32 32 0 0 0 32-32v-82a32 32 0 0 0-32-32zM768.5 713a24 24 0 1 1-24 24 24 24 0 0 1 24-24m0-20a44 44 0 1 0 44 44 44 44 0 0 0-44-44z" fill="#26263D" p-id="7564"></path></svg>