<?xml version="1.0" standalone="no"?><!DOCTYPE svg PUBLIC "-//W3C//DTD SVG 1.1//EN" "http://www.w3.org/Graphics/SVG/1.1/DTD/svg11.dtd"><svg t="1533353057692" class="icon" style="" viewBox="0 0 1024 1024" version="1.1" xmlns="http://www.w3.org/2000/svg" p-id="6589" xmlns:xlink="http://www.w3.org/1999/xlink" width="48" height="48"><defs><style type="text/css"></style></defs><path d="M921.4 827.3l-29.2-230.4c-3.9-30.5-29.9-53.5-60.7-53.5h-52.3L856.9 140c2.1-10.8-5-21.3-15.9-23.4-10.8-2.1-21.3 5-23.4 15.9l-79.2 410.9H532V136.3c0-11-9-20-20-20s-20 9-20 20v407.1H285.5l-79.2-410.9c-2.1-10.8-12.6-17.9-23.4-15.9-10.8 2.1-17.9 12.6-15.9 23.4l77.7 403.4h-52.3c-30.7 0-56.8 23-60.7 53.5l-29.2 230.4c-2.6 20.3 3.7 40.8 17.3 56.2 13.6 15.4 33.1 24.2 53.6 24.2h677.1c20.5 0 40-8.8 53.6-24.2 13.6-15.4 19.9-35.9 17.3-56.2zM192.5 583.4h639c10.6 0 19.6 7.9 21 18.5l19.3 151.9H152.2l19.3-151.9c1.3-10.5 10.4-18.5 21-18.5z m681.6 273.7c-6.1 6.9-14.4 10.7-23.6 10.7H173.4c-9.2 0-17.5-3.8-23.6-10.7s-8.8-15.7-7.6-24.7l4.9-38.5h729.7l4.9 38.5c1.2 9-1.5 17.8-7.6 24.7z" fill="#565656" p-id="6590"></path><path d="M800.2 816.4h-84.7c-1.6 0-2.9 1.3-2.9 2.9v24.4c0 1.6 1.3 2.9 2.9 2.9h84.7c1.6 0 2.9-1.3 2.9-2.9v-24.4c-0.1-1.6-1.3-2.9-2.9-2.9z" fill="#565656" p-id="6591"></path></svg>