<?xml version="1.0" standalone="no"?><!DOCTYPE svg PUBLIC "-//W3C//DTD SVG 1.1//EN" "http://www.w3.org/Graphics/SVG/1.1/DTD/svg11.dtd"><svg t="1533353116145" class="icon" style="" viewBox="0 0 1178 1024" version="1.1" xmlns="http://www.w3.org/2000/svg" p-id="7902" xmlns:xlink="http://www.w3.org/1999/xlink" width="55.21875" height="48"><defs><style type="text/css"></style></defs><path d="M155.5452 245.183099v-144.508703a47.050333 47.050333 0 0 1 13.855835-33.591189 46.511968 46.511968 0 0 1 33.477849-13.955008 47.262846 47.262846 0 0 1 47.432857 47.305349v144.749551z m302.448214-3.08852V97.345029a47.262846 47.262846 0 0 0-47.432856-47.305349 46.511968 46.511968 0 0 0-33.47785 13.955007 47.050333 47.050333 0 0 0-13.855834 33.59119v144.508702z m720.744238 566.686627v81.250726a94.809043 94.809043 0 0 1-94.794875 94.794876h-0.425026a34.002048 34.002048 0 0 1-33.59119 39.173192h-37.062232a34.002048 34.002048 0 0 1-33.591189-39.173192H184.262763a34.002048 34.002048 0 0 1-33.591189 39.173192H113.566839a34.002048 34.002048 0 0 1-33.407012-40.306594A94.922383 94.922383 0 0 1 0 890.031932v-81.250726a94.922383 94.922383 0 0 1 94.794875-94.794875h60.920336l-0.141675-419.996127h94.780707l0.141676 420.038629h112.900965l-0.141675-423.05631h94.780708l0.141675 423.098813h625.821855a94.922383 94.922383 0 0 1 94.738205 94.70987z m-67.182379 0a27.640831 27.640831 0 0 0-27.612496-27.598329H94.837378a27.626664 27.626664 0 0 0-27.598329 27.598329v81.250726a27.640831 27.640831 0 0 0 27.598329 27.612496h989.162069a27.598329 27.598329 0 0 0 19.65035-8.174658 27.272476 27.272476 0 0 0 8.018816-19.437838z" fill="" p-id="7903"></path><path d="M221.324995 883.160685a33.888707 33.888707 0 1 1 17.001024-4.547774 33.917043 33.917043 0 0 1-17.001024 4.547774z m142.326905-4.547774a33.846205 33.846205 0 1 0-17.001024 4.547774 34.002048 34.002048 0 0 0 17.001024-4.533606z m267.766125-29.326766a33.87454 33.87454 0 1 0-33.87454 33.87454 34.002048 34.002048 0 0 0 33.81787-33.87454zM799.359805 68.995822c17.312709 17.511055 29.071751 31.678574 41.255818 50.238025q9.506406 14.493373 17.59606 29.836797 4.009408 7.593791 7.65046 15.371759 1.813443 3.8819 3.54188 7.792136-1.870113-4.632779 0.892554 2.181798a376.402667 376.402667 0 0 1 19.126152 64.901408q1.629265 8.259664 2.833504 16.604334c-0.977559-6.545394 0.935056 8.713025 1.076731 10.158111q1.530092 16.731841 1.530093 33.562855t-1.530093 33.562854c-0.127508 1.416752-2.040123 16.703506-1.076731 10.158112q-1.232574 8.330502-2.833504 16.604333a376.402667 376.402667 0 0 1-19.126152 64.901409q-2.762666 6.814577-0.892554 2.181798-1.728437 3.910235-3.54188 7.792136-3.641053 7.777968-7.65046 15.371759-8.075486 15.329256-17.59606 29.836797c-12.184067 18.573619-23.957276 32.726971-41.255818 50.238025-36.509699 36.948892 20.472066 93.987327 57.0101 57.0101 119.956391-121.415645 151.280777-304.686682 80.910706-459.636847-19.522842-42.998423-47.772877-82.171615-80.910706-115.663632-36.523866-36.963059-93.505631 20.047041-57.0101 57.0101z" fill="#A6BAFB" p-id="7904"></path><path d="M704.352417 164.017377c-36.382191-37.090567 20.613741-94.114834 57.0101-57.0101 104.471291 106.497247 104.471291 278.760121 0 385.257368-36.410526 37.118902-93.378123-19.947868-57.0101-57.0101 10.993995-11.206508 17.142699-18.587786 24.283129-29.581782q5.879521-9.053045 10.894823-18.644456a116.882039 116.882039 0 0 0 6.531227-13.699991 238.552699 238.552699 0 0 0 11.645701-40.575777 178.822436 178.822436 0 0 0 2.691829-33.123662q0-10.498132-0.935057-20.953761c-0.184178-2.068458-1.147569-9.463903-0.325853-3.881901-0.510031-3.471042-1.147569-6.91375-1.841777-10.356457a237.745151 237.745151 0 0 0-11.234843-38.507319c-7.551288-19.678685-24.311464-44.174327-41.709179-61.912062z" fill="#9185F7" p-id="7905"></path><path d="M472.104264 883.160685a33.87454 33.87454 0 1 1 33.87454-33.87454 33.917043 33.917043 0 0 1-33.87454 33.87454z m137.226597-624.13592c22.668032 23.758931 22.823874 57.307618 0 81.194057-35.857993 37.515593 21.067102 94.610698 57.0101 57.0101a140.329284 140.329284 0 0 0 0-195.214256c-35.886328-37.58643-92.88226 19.494507-57.0101 57.010099z" fill="#7E52F3" p-id="7906"></path></svg>