<?xml version="1.0" standalone="no"?><!DOCTYPE svg PUBLIC "-//W3C//DTD SVG 1.1//EN" "http://www.w3.org/Graphics/SVG/1.1/DTD/svg11.dtd"><svg t="1533353036869" class="icon" style="" viewBox="0 0 1024 1024" version="1.1" xmlns="http://www.w3.org/2000/svg" p-id="6212" xmlns:xlink="http://www.w3.org/1999/xlink" width="48" height="48"><defs><style type="text/css"></style></defs><path d="M160 716.8h704v64H160v-64m0-32c-17.6 0-32 14.4-32 32v64c0 17.6 14.4 32 32 32h704c17.6 0 32-14.4 32-32v-64c0-17.6-14.4-32-32-32H160z" fill="#7069F3" p-id="6213"></path><path d="M240 524.8h544c14.4 0 27.2 9.6 30.4 24l38.4 137.6H169.6l38.4-136c4.8-16 17.6-25.6 32-25.6m0-32c-28.8 0-54.4 19.2-60.8 46.4l-44.8 156.8c-3.2 9.6 4.8 20.8 16 20.8h724.8c11.2 0 17.6-9.6 16-20.8l-44.8-156.8c-8-27.2-33.6-46.4-60.8-46.4H240z" fill="#7069F3" p-id="6214"></path><path d="M264 513.6c-9.6 0-16-6.4-16-16v-288c0-9.6 6.4-16 16-16s16 6.4 16 16v288c0 9.6-6.4 16-16 16zM428.8 513.6c-9.6 0-16-6.4-16-16v-288c0-9.6 6.4-16 16-16s16 6.4 16 16v288c0 9.6-6.4 16-16 16zM595.2 513.6c-9.6 0-16-6.4-16-16v-288c0-9.6 6.4-16 16-16s16 6.4 16 16v288c0 9.6-8 16-16 16zM760 513.6c-9.6 0-16-6.4-16-16v-288c0-9.6 6.4-16 16-16s16 6.4 16 16v288c0 9.6-6.4 16-16 16z" fill="#7069F3" p-id="6215"></path><path d="M160 752h704v32H160z" fill="#BDBBFE" p-id="6216"></path><path d="M768 766.4h-32c-9.6 0-16-6.4-16-16s6.4-16 16-16h32c9.6 0 16 6.4 16 16 0 8-6.4 16-16 16z" fill="#7069F3" p-id="6217"></path></svg>