<?xml version="1.0" standalone="no"?><!DOCTYPE svg PUBLIC "-//W3C//DTD SVG 1.1//EN" "http://www.w3.org/Graphics/SVG/1.1/DTD/svg11.dtd"><svg t="1533353065722" class="icon" style="" viewBox="0 0 1298 1024" version="1.1" xmlns="http://www.w3.org/2000/svg" p-id="6788" xmlns:xlink="http://www.w3.org/1999/xlink" width="60.84375" height="48"><defs><style type="text/css"></style></defs><path d="M241.188571 36.571429l18.285715 672.731428a36.571429 36.571429 0 0 1-36.571429 36.571429h-2.377143a36.571429 36.571429 0 0 1-36.571428-36.571429L204.068571 36.571429c0-19.748571-2.377143-36.571429 17.371429-36.571429h2.377143c19.748571 0 17.371429 16.274286 17.371428 36.571429M1094.217143 36.571429l18.285714 672.731428a36.571429 36.571429 0 0 1-36.571428 36.571429h-2.377143a36.571429 36.571429 0 0 1-36.571429-36.571429L1057.097143 36.571429c0-19.748571-2.377143-36.571429 17.371428-36.571429h2.377143c19.748571 0 17.371429 16.274286 17.371429 36.571429" fill="#2169F9" p-id="6789"></path><path d="M1186.925714 1024H111.36A111.725714 111.725714 0 0 1 0 912.274286v-111.725715a111.908571 111.908571 0 0 1 111.36-111.725714h1094.217143A92.891429 92.891429 0 0 1 1298.285714 781.897143v130.377143A111.725714 111.725714 0 0 1 1186.925714 1024" fill="#00DDF4" p-id="6790"></path><path d="M231.862857 1024H111.36A111.725714 111.725714 0 0 1 0 912.274286v-111.725715a111.908571 111.908571 0 0 1 111.36-111.725714h139.154286a157.988571 157.988571 0 0 1 157.622857 158.171429A177.005714 177.005714 0 0 1 231.862857 1024" fill="#FF4D78" p-id="6791"></path><path d="M1177.782857 819.2h-92.708571a27.977143 27.977143 0 0 1 0-55.771429h92.708571a27.977143 27.977143 0 0 1 0 55.771429" fill="#FFE164" p-id="6792"></path></svg>