<?xml version="1.0" standalone="no"?><!DOCTYPE svg PUBLIC "-//W3C//DTD SVG 1.1//EN" "http://www.w3.org/Graphics/SVG/1.1/DTD/svg11.dtd"><svg t="1533280752695" class="icon" style="" viewBox="0 0 1024 1024" version="1.1" xmlns="http://www.w3.org/2000/svg" p-id="4151" xmlns:xlink="http://www.w3.org/1999/xlink" width="48" height="48"><defs><style type="text/css"></style></defs><path d="M914.096869 80.629091H112.834691c-43.867903 0-79.558128 35.690225-79.558128 79.558128v484.158171c0 43.8711 35.690225 79.561325 79.558128 79.561325H203.738628a135.024395 135.024395 0 0 0-22.570135 35.763754c-14.219825 33.071962-14.715345 69.702076-1.387456 103.144879 13.331086 33.442802 38.883931 59.692573 71.955893 73.915594 17.103431 7.352877 35.146752 11.035709 53.218844 11.035709a134.691917 134.691917 0 0 0 49.922837-9.65145l303.641847-121.018763a22.352746 22.352746 0 0 0 5.041516-1.333109c46.108932-18.378995 98.573307 4.19114 116.952303 50.290481a22.381518 22.381518 0 0 0 20.792657 14.098343c2.75573 0 5.562611-0.514701 8.279979-1.598452a22.371927 22.371927 0 0 0 12.49989-29.072636c-26.857182-67.381125-102.326471-101.137223-170.119996-77.138072a22.429471 22.429471 0 0 0-5.588186 1.40344l-308.072755 122.783454c-22.327171 8.909769-46.799463 8.580488-68.890063-0.923905-22.0906-9.501196-39.158865-27.033012-48.059042-49.369773-8.903375-22.333564-8.577291-46.80266 0.923905-68.890063 9.501196-22.0906 27.033012-39.158865 49.369773-48.059043a22.218476 22.218476 0 0 0 7.921925-5.386781H914.090475c43.867903 0 79.558128-35.690225 79.558128-79.561325V160.184022c0.003197-43.864706-35.687028-79.554931-79.551734-79.554931z m34.798289 563.716299c0 19.191009-15.613674 34.804683-34.801486 34.804683H112.834691c-19.187812 0-34.801486-15.613674-34.801486-34.804683V160.184022c0-19.187812 15.613674-34.801486 34.801486-34.801486h801.262178c19.187812 0 34.801486 15.613674 34.801486 34.801486v484.161368z" fill="#009FE8" p-id="4152"></path><path d="M202.661272 175.525959H113.477269a21.051606 21.051606 0 0 0-21.051606 21.051606v89.1872a21.051606 21.051606 0 0 0 21.051606 21.051607h89.1872a21.051606 21.051606 0 0 0 21.051606-21.051607V196.580762a21.054803 21.054803 0 0 0-21.054803-21.054803z m-21.051606 89.1872H134.528875V217.632369h47.080791v47.08079zM666.857981 306.819569h89.1872a21.051606 21.051606 0 0 0 21.051606-21.051607V196.580762a21.051606 21.051606 0 0 0-21.051606-21.051606h-89.1872a21.051606 21.051606 0 0 0-21.051606 21.051606v89.1872a21.048409 21.048409 0 0 0 21.051606 21.051607z m21.051607-89.1872h47.08079v47.08079H687.909588V217.632369zM528.512004 306.819569h89.1872a21.051606 21.051606 0 0 0 21.051606-21.051607V196.580762a21.051606 21.051606 0 0 0-21.051606-21.051606H528.512004a21.051606 21.051606 0 0 0-21.051606 21.051606v89.1872a21.051606 21.051606 0 0 0 21.051606 21.051607z m21.051606-89.1872h47.080791v47.08079h-47.080791V217.632369zM390.169224 306.819569h89.184003a21.051606 21.051606 0 0 0 21.051606-21.051607V196.580762a21.051606 21.051606 0 0 0-21.051606-21.051606h-89.184003a21.051606 21.051606 0 0 0-21.051607 21.051606v89.1872a21.045212 21.045212 0 0 0 21.051607 21.051607z m21.051606-89.1872h47.077593v47.08079h-47.077593V217.632369zM251.820049 306.819569h89.1872a21.051606 21.051606 0 0 0 21.051606-21.051607V196.580762a21.051606 21.051606 0 0 0-21.051606-21.051606H251.820049a21.051606 21.051606 0 0 0-21.051606 21.051606v89.1872a21.051606 21.051606 0 0 0 21.051606 21.051607z m21.054803-89.1872h47.080791v47.08079H272.874852V217.632369zM202.661272 339.466342H113.477269a21.051606 21.051606 0 0 0-21.051606 21.051606v89.1872a21.051606 21.051606 0 0 0 21.051606 21.051606h89.1872a21.051606 21.051606 0 0 0 21.051606-21.051606v-89.1872a21.051606 21.051606 0 0 0-21.054803-21.051606z m-21.051606 89.1872H134.528875v-47.080791h47.080791v47.080791zM528.512004 470.756754h89.1872a21.051606 21.051606 0 0 0 21.051606-21.051606v-89.1872a21.051606 21.051606 0 0 0-21.051606-21.051606H528.512004a21.051606 21.051606 0 0 0-21.051606 21.051606v89.1872a21.051606 21.051606 0 0 0 21.051606 21.051606z m21.051606-89.184003h47.080791v47.080791h-47.080791v-47.080791zM390.169224 470.756754h89.184003a21.051606 21.051606 0 0 0 21.051606-21.051606v-89.1872a21.051606 21.051606 0 0 0-21.051606-21.051606h-89.184003a21.051606 21.051606 0 0 0-21.051607 21.051606v89.1872a21.045212 21.045212 0 0 0 21.051607 21.051606z m21.051606-89.184003h47.077593v47.080791h-47.077593v-47.080791zM362.062052 449.705148v-89.1872a21.051606 21.051606 0 0 0-21.051606-21.051606H251.820049a21.051606 21.051606 0 0 0-21.051606 21.051606v89.1872a21.051606 21.051606 0 0 0 21.051606 21.051606h89.1872a21.054803 21.054803 0 0 0 21.054803-21.051606z m-42.106409-21.051606H272.874852v-47.080791h47.080791v47.080791z" fill="#009FE8" p-id="4153"></path><path d="M903.179445 175.525959h-89.1872a21.051606 21.051606 0 0 0-21.051606 21.051606v142.88558h-110.098143a21.051606 21.051606 0 0 0-21.051606 21.051606v89.1872a21.051606 21.051606 0 0 0 21.051606 21.051606h220.336949a21.051606 21.051606 0 0 0 21.051606-21.051606V196.580762a21.051606 21.051606 0 0 0-21.051606-21.054803z m-21.051606 253.127583H703.894103v-47.080791h110.098142a21.051606 21.051606 0 0 0 21.051606-21.051606V217.632369h47.080791v211.021173zM202.661272 493.160651H113.477269a21.051606 21.051606 0 0 0-21.051606 21.051606v89.1872a21.051606 21.051606 0 0 0 21.051606 21.051606h89.1872a21.051606 21.051606 0 0 0 21.051606-21.051606v-89.1872a21.054803 21.054803 0 0 0-21.054803-21.051606z m-21.051606 89.1872H134.528875v-47.080791h47.080791v47.080791zM723.008386 493.160651H293.133627a21.051606 21.051606 0 0 0-21.051606 21.051606v89.1872a21.051606 21.051606 0 0 0 21.051606 21.051606h429.874759a21.051606 21.051606 0 0 0 21.051606-21.051606v-89.1872a21.048409 21.048409 0 0 0-21.051606-21.051606z m-21.051607 89.1872H314.18843v-47.080791h387.768349v47.080791zM902.66794 493.160651h-89.187199a21.051606 21.051606 0 0 0-21.051607 21.051606v89.1872a21.051606 21.051606 0 0 0 21.051607 21.051606h89.187199a21.051606 21.051606 0 0 0 21.051607-21.051606v-89.1872a21.048409 21.048409 0 0 0-21.051607-21.051606z m-21.051606 89.1872h-47.08079v-47.080791h47.08079v47.080791z" fill="#009FE8" p-id="4154"></path></svg>