<?xml version="1.0" standalone="no"?><!DOCTYPE svg PUBLIC "-//W3C//DTD SVG 1.1//EN" "http://www.w3.org/Graphics/SVG/1.1/DTD/svg11.dtd"><svg t="1533260103959" class="icon" style="" viewBox="0 0 1024 1024" version="1.1" xmlns="http://www.w3.org/2000/svg" p-id="18461" xmlns:xlink="http://www.w3.org/1999/xlink" width="48" height="48"><defs><style type="text/css"></style></defs><path d="M595.55 431.78v258.13l267.58-20.99-211.97-267.57-55.61 30.43z" fill="#FFFFFF" p-id="18462"></path><path d="M586.74 447.72v-266a40.11 40.11 0 0 1 42.2-40.05l72.81 3.8a1360.46 1360.46 0 0 0 137.57 0.2l84.09-4.14a40.12 40.12 0 0 1 42.08 40.07v433a40.11 40.11 0 0 1-36.07 39.9L913 656.16c-25.72 2.61-55 4.48-80.84 5.61" fill="#FFFFFF" p-id="18463"></path><path d="M832.18 677.51a15.74 15.74 0 0 1-0.68-31.51c28.71-1.26 57.1-3.22 80-5.54l16.38-1.66a24.29 24.29 0 0 0 21.92-24.24v-433a24.38 24.38 0 0 0-25.57-24.34l-84.09 4.13a1380.19 1380.19 0 0 1-139.16-0.21l-72.81-3.8a24.38 24.38 0 0 0-25.64 24.34v266a15.74 15.74 0 0 1-31.48 0v-266A55.84 55.84 0 0 1 629.76 126l72.81 3.8a1349.35 1349.35 0 0 0 136 0.2l84.09-4.14a55.86 55.86 0 0 1 58.6 55.79v433A55.69 55.69 0 0 1 931 670.16l-16.39 1.66c-23.43 2.37-52.45 4.39-81.74 5.67z" fill="#191007" p-id="18464"></path><path d="M643.07 221.77l266.08 0 0 112.66-266.08 0 0-112.66Z" fill="#FFCE0C" p-id="18465"></path><path d="M872.85 344.92H679.38a46.85 46.85 0 0 1-46.8-46.8v-40a46.86 46.86 0 0 1 46.8-46.81h193.47a46.86 46.86 0 0 1 46.8 46.81v40a46.85 46.85 0 0 1-46.8 46.8zM679.38 232.26a25.84 25.84 0 0 0-25.81 25.82v40a25.84 25.84 0 0 0 25.81 25.82h193.47a25.84 25.84 0 0 0 25.81-25.82v-40a25.84 25.84 0 0 0-25.81-25.82zM965.29 618.39a10.49 10.49 0 0 1-10.49-10.49c0-30.23-17.84-58.94-50.24-80.84C870.91 504.31 826 491.77 778 491.77a256.55 256.55 0 0 0-64.31 8 10.49 10.49 0 0 1-5.26-20.32 277.78 277.78 0 0 1 69.57-8.66c52.1 0 101.22 13.81 138.31 38.88 38.35 25.93 59.47 60.82 59.47 98.23a10.49 10.49 0 0 1-10.49 10.49z" fill="#191007" p-id="18466"></path><path d="M648 656.87c65 17.33 99.68 39.6 99.68 66.74 0 52.54-152 118.9-339.59 118.9s-339.6-66.36-339.6-118.9c0-27.77 32.43-49.35 100.12-66.74" fill="#FFFFFF" p-id="18467"></path><path d="M408.11 858.25c-88.68 0-175.93-14.47-245.68-40.76-31.81-12-58.43-26.09-77-40.8-21.67-17.16-32.66-35-32.66-53.08 0-47.71 63.89-69.64 111.94-82l7.84 30.49c-57.77 14.84-88.3 32.65-88.3 51.5 0 14.82 27.94 41.31 89.28 64.43 65.33 24.61 150.83 38.73 234.58 38.73S577.35 812.65 642.68 788C704 764.92 732 738.43 732 723.61c0-8.45-8.58-30.37-88-51.53l8.11-30.42c74.94 20 111.37 46.77 111.37 82 0 18.06-11 35.92-32.66 53.08-18.56 14.71-45.19 28.82-77 40.8-69.82 26.24-157.04 40.71-245.71 40.71z" fill="#191007" p-id="18468"></path><path d="M608.66 566.8l55 134.66a28.39 28.39 0 0 1-6 30.77c-31.28 31.5-131.17 57-249.57 57s-218.2-30.33-249.53-63.52a28.4 28.4 0 0 1-4.49-32.43l64.66-126.48" fill="#FFCE0C" p-id="18469"></path><path d="M408.11 799.68c-112.46 0-220.62-28.09-257.16-66.8a39 39 0 0 1-6.21-44.42L209.39 562l18.69 9.55L163.43 698a17.94 17.94 0 0 0 2.77 20.46c27.57 29.2 121.72 60.22 241.91 60.22 123.84 0 215.55-27.09 242.13-53.85a17.89 17.89 0 0 0 3.76-19.41l-55-134.65 19.43-7.94 55 134.65a38.85 38.85 0 0 1-8.28 42.15C630 775 524.32 799.68 408.11 799.68z" fill="#01040A" p-id="18470"></path><path d="M600 549.8c5.92 4.05 9.12 8.36 9.12 12.84 0 23.42-87.54 42.4-195.53 42.4s-195.52-19-195.52-42.4c0-7.75 8-13.77 24.74-20" fill="#FFFFFF" p-id="18471"></path><path d="M413.62 620.78C360.31 620.78 310 616.24 272 608c-29.91-6.48-69.67-18.24-69.67-45.36 0-21.71 24.51-30.86 35-34.77l11 29.49a77.27 77.27 0 0 0-11.92 5.38c6.09 4 21.14 10.64 51.81 16.43 34.62 6.53 79.15 10.13 125.39 10.13s90.78-3.6 125.4-10.13c31.82-6 46.83-12.94 52.46-16.87l17.43-25.49c13.21 9 16 19 16 25.83 0 27.12-39.76 38.88-69.67 45.36-38.01 8.24-88.29 12.78-141.61 12.78z" fill="#191007" p-id="18472"></path><path d="M319.510289 490.941243l39.272711-39.272711 39.272711 39.272711-39.272711 39.27271-39.272711-39.27271Z" fill="#FFFFFF" p-id="18473"></path><path d="M358.78 535.88a39.53 39.53 0 0 1-28-11.59l-5.36-5.29a39.67 39.67 0 0 1 0-56l5.34-5.35a39.68 39.68 0 0 1 56 0l5.34 5.35a39.65 39.65 0 0 1 0 56l-5.34 5.34a39.51 39.51 0 0 1-27.98 11.54z m0-58.65a8.34 8.34 0 0 0-5.92 2.45l-5.34 5.32a8.37 8.37 0 0 0 0 11.84l5.34 5.34a8.38 8.38 0 0 0 11.84 0l5.34-5.34A8.38 8.38 0 0 0 370 485l-5.35-5.34a8.34 8.34 0 0 0-5.87-2.43z" fill="#191007" p-id="18474"></path><path d="M234.8092 529.885l30.5258-30.5258 30.5258 30.5258-30.5258 30.5258-30.5258-30.5258Z" fill="#FFFFFF" p-id="18475"></path><path d="M265.34 564.81a30.68 30.68 0 0 1-21.77-9l-4.15-4.15a30.83 30.83 0 0 1 0-43.55l4.16-4.15a30.78 30.78 0 0 1 43.54 0l4.15 4.15a30.82 30.82 0 0 1 0 43.55l-4.15 4.15a30.7 30.7 0 0 1-21.78 9z m0-45.58a6.45 6.45 0 0 0-4.6 1.9l-4.15 4.16a6.49 6.49 0 0 0 0 9.2l4.15 4.15a6.51 6.51 0 0 0 9.2 0l4.15-4.15a6.52 6.52 0 0 0 0-9.21l-4.15-4.15a6.45 6.45 0 0 0-4.6-1.9z" fill="#191007" p-id="18476"></path><path d="M304.076674 565.644243l26.382154-26.382154 26.382154 26.382154-26.382154 26.382154-26.382154-26.382154Z" fill="#FFFFFF" p-id="18477"></path><path d="M330.45 595.83a26.54 26.54 0 0 1-18.81-7.78l-3.59-3.59a26.63 26.63 0 0 1 0-37.63l3.59-3.59a26.63 26.63 0 0 1 37.63 0l3.59 3.59a26.65 26.65 0 0 1 0 37.63l-3.59 3.59a26.56 26.56 0 0 1-18.82 7.78z m0-39.4a5.57 5.57 0 0 0-4 1.65l-3.59 3.59a5.63 5.63 0 0 0 0 8l3.59 3.59a5.63 5.63 0 0 0 7.95 0l3.59-3.59a5.64 5.64 0 0 0 0-8l-3.59-3.59a5.61 5.61 0 0 0-3.95-1.65z" fill="#191007" p-id="18478"></path><path d="M374.637864 560.410293l28.001429-28.001429 28.001428 28.001429-28.001428 28.001428-28.001429-28.001428Z" fill="#FFFFFF" p-id="18479"></path><path d="M402.64 593a31.58 31.58 0 0 1-22.42-9.28l-0.84-0.84a31.74 31.74 0 0 1 0-44.85l0.84-0.84a31.76 31.76 0 0 1 44.85 0l0.84 0.84a31.76 31.76 0 0 1 0 44.85l-0.84 0.84a31.62 31.62 0 0 1-22.43 9.28z m0-40.08a6.69 6.69 0 0 0-4.74 2l-0.84 0.84a6.72 6.72 0 0 0 0 9.48l0.84 0.84a6.72 6.72 0 0 0 9.48 0l0.84-0.84a6.7 6.7 0 0 0 0-9.48l-0.84-0.84a6.67 6.67 0 0 0-4.74-2.05z" fill="#191007" p-id="18480"></path><path d="M435.795344 576.14095l29.288363-29.288363 29.288363 29.288363-29.288363 29.288363-29.288363-29.288363Z" fill="#FFFFFF" p-id="18481"></path><path d="M465.08 607.58a30.48 30.48 0 0 1-21.62-8.94l-0.88-0.88a30.61 30.61 0 0 1 0-43.25l0.88-0.88a30.61 30.61 0 0 1 43.24 0l0.88 0.88a30.61 30.61 0 0 1 0 43.25l-0.88 0.88a30.48 30.48 0 0 1-21.62 8.94z m0-41.91a9.54 9.54 0 0 0-6.78 2.8l-0.88 0.88a9.61 9.61 0 0 0 0 13.57l0.88 0.88a9.6 9.6 0 0 0 13.56 0l0.89-0.89a9.61 9.61 0 0 0 0-13.56l-0.88-0.88a9.56 9.56 0 0 0-6.79-2.8z" fill="#191007" p-id="18482"></path><path d="M410.862058 499.726192l30.950063-30.950063 30.950064 30.950063-30.950064 30.950064-30.950063-30.950064Z" fill="#FFFFFF" p-id="18483"></path><path d="M441.8 535.46a33.37 33.37 0 0 1-23.66-9.79l-2.29-2.28a33.52 33.52 0 0 1 0-47.34l2.29-2.28a33.5 33.5 0 0 1 47.33 0l2.28 2.28a33.52 33.52 0 0 1 0 47.34l-2.28 2.28a33.39 33.39 0 0 1-23.67 9.79z m0-45.09a7 7 0 0 0-5 2.07l-2.28 2.28a7.07 7.07 0 0 0 0 10l2.28 2.28a7.07 7.07 0 0 0 10 0l2.28-2.28a7.07 7.07 0 0 0 0-10l-2.28-2.28a7 7 0 0 0-5-2.07z" fill="#191007" p-id="18484"></path><path d="M489.978344 506.442243l31.671313-31.671313 31.671313 31.671313-31.671313 31.671312-31.671313-31.671312Z" fill="#FFFFFF" p-id="18485"></path><path d="M521.65 543a34 34 0 0 1-24.23-10l-2.33-2.33a34.31 34.31 0 0 1 0-48.45l2.33-2.33a34.31 34.31 0 0 1 48.45 0l2.33 2.33a34.29 34.29 0 0 1 0 48.45l-2.33 2.33a34 34 0 0 1-24.22 10z m0-46.15a7.2 7.2 0 0 0-5.12 2.11l-2.34 2.34a7.24 7.24 0 0 0 0 10.23l2.34 2.34a7.24 7.24 0 0 0 10.24 0l2.33-2.34a7.24 7.24 0 0 0 0-10.23l-2.33-2.3a7.24 7.24 0 0 0-5.12-2.12z" fill="#191007" p-id="18486"></path><path d="M565.870976 519.508293l30.759145-30.759145 30.759145 30.759145-30.759145 30.759145-30.759145-30.759145Z" fill="#FFFFFF" p-id="18487"></path><path d="M596.62 555a33.2 33.2 0 0 1-23.52-9.73l-2.26-2.27a33.3 33.3 0 0 1 0-47l2.26-2.26a33.3 33.3 0 0 1 47 0l2.27 2.26a33.3 33.3 0 0 1 0 47l-2.27 2.27a33.17 33.17 0 0 1-23.48 9.73z m0-44.81a7 7 0 0 0-5 2.06l-2.26 2.26a7 7 0 0 0 0 9.94l2.26 2.27a7 7 0 0 0 9.94 0l2.27-2.27a7 7 0 0 0 0-9.94l-2.26-2.26a7.05 7.05 0 0 0-4.95-2.03z" fill="#191007" p-id="18488"></path></svg>