<?xml version="1.0" standalone="no"?><!DOCTYPE svg PUBLIC "-//W3C//DTD SVG 1.1//EN" "http://www.w3.org/Graphics/SVG/1.1/DTD/svg11.dtd"><svg t="1533296320478" class="icon" style="" viewBox="0 0 1024 1024" version="1.1" xmlns="http://www.w3.org/2000/svg" p-id="20995" xmlns:xlink="http://www.w3.org/1999/xlink" width="48" height="48"><defs><style type="text/css"></style></defs><path d="M512 897.9c-52.1 0-102.6-10.2-150.2-30.3-46-19.4-87.2-47.3-122.6-82.7-35.4-35.4-63.3-76.7-82.7-122.6-20.1-47.6-30.3-98.1-30.3-150.2 0-52.1 10.2-102.6 30.3-150.2 19.4-46 47.3-87.2 82.7-122.6 35.4-35.4 76.7-63.3 122.6-82.7 47.6-20.1 98.1-30.3 150.2-30.3 52.1 0 102.6 10.2 150.2 30.3 46 19.4 87.2 47.3 122.6 82.7 35.4 35.4 63.3 76.7 82.7 122.6 20.1 47.6 30.3 98.1 30.3 150.2 0 52.1-10.2 102.6-30.3 150.2-19.4 46-47.3 87.2-82.7 122.6s-76.7 63.3-122.6 82.7c-47.6 20.1-98.1 30.3-150.2 30.3z" fill="#FFE57A" p-id="20996"></path><path d="M512 146.1c202.1 0 365.9 163.8 365.9 365.9S714.1 877.9 512 877.9 146.1 714.1 146.1 512 309.9 146.1 512 146.1m0-40c-54.8 0-107.9 10.7-158 31.9-48.3 20.4-91.7 49.7-129 87s-66.5 80.7-87 129c-21.2 50.1-31.9 103.2-31.9 158s10.7 107.9 31.9 158c20.4 48.3 49.7 91.7 87 129s80.7 66.5 129 87c50.1 21.2 103.2 31.9 158 31.9s107.9-10.7 158-31.9c48.3-20.4 91.7-49.7 129-87s66.5-80.7 87-129c21.2-50.1 31.9-103.2 31.9-158S907.1 404.1 886 354c-20.4-48.3-49.7-91.7-87-129s-80.7-66.5-129-87c-50.1-21.1-103.2-31.9-158-31.9z" fill="#200000" p-id="20997"></path><path d="M269.3 558.7l-9.9 13.2-11.6-9.1 1-12.9 16.1 1zM340.3 755.4l-12.8 10.4-9.1-11.6 4.2-12.3 15.3 4.8zM446 514l-13.3-9.8 9.1-11.7 12.9 1.1-0.9 16zM301.5 302.9l12.8 10.4-9.6 11.2-12.8-1.6 1.6-16zM616 430l5.5 15.6-14 4.6-10.2-8 9.7-12.9zM589.1 263.7l-1.6-16.4 14.7-1.1 7.9 10.3-12.6 10.1zM764.6 374.3l-16.5-1.4 1.6-14.6 11.5-6 7.7 14.2zM775.9 635.4l11.8-11.6 10.1 10.8-3 12.5-15.8-3.3zM528.3 569.5l16.4 1.7-1.9 14.7-11.6 5.6-7.4-14.3zM670.1 731.4l12.9 10.4-9.6 11.3-12.9-1.6 1.6-16.1z" fill="#FFFFFF" p-id="20998"></path><path d="M430.8 273.4m-37 0a37 37 0 1 0 74 0 37 37 0 1 0-74 0Z" fill="#530000" p-id="20999"></path><path d="M275.4 497.4m-37 0a37 37 0 1 0 74 0 37 37 0 1 0-74 0Z" fill="#530000" p-id="21000"></path><path d="M537.4 501m-37 0a37 37 0 1 0 74 0 37 37 0 1 0-74 0Z" fill="#530000" p-id="21001"></path><path d="M427.2 732.3m-37 0a37 37 0 1 0 74 0 37 37 0 1 0-74 0Z" fill="#530000" p-id="21002"></path><path d="M716.3 699.8m-37 0a37 37 0 1 0 74 0 37 37 0 1 0-74 0Z" fill="#530000" p-id="21003"></path><path d="M795.8 475.7m-37 0a37 37 0 1 0 74 0 37 37 0 1 0-74 0Z" fill="#530000" p-id="21004"></path><path d="M662.1 314.9m-37 0a37 37 0 1 0 74 0 37 37 0 1 0-74 0Z" fill="#530000" p-id="21005"></path></svg>